<?xml version="1.0" standalone="no"?>
<!DOCTYPE svg PUBLIC "-//W3C//DTD SVG 1.1//EN" "http://www.w3.org/Graphics/SVG/1.1/DTD/svg11.dtd" >
<svg>
<metadata>
Created by FontForge 20090914 at Sun Dec 18 18:52:53 2022
 By www-data
tracertong.co.uk
</metadata>
<defs>
<font id="Shredded" horiz-adv-x="989" >
  <font-face 
    font-family="Shredded"
    font-weight="400"
    font-stretch="semi-expanded"
    units-per-em="2048"
    panose-1="2 11 5 0 0 0 0 0 0 0"
    ascent="1638"
    descent="-410"
    x-height="1634"
    cap-height="1638"
    bbox="-103.999 -236 1323 1683"
    underline-thickness="20"
    underline-position="-123"
    unicode-range="U+0020-U+2026"
  />
<missing-glyph horiz-adv-x="614" 
 />
    <glyph glyph-name=".notdef" horiz-adv-x="614" 
 />
    <glyph glyph-name="space" unicode=" " horiz-adv-x="614" 
 />
    <glyph glyph-name="exclam" unicode="!" horiz-adv-x="397" 
d="M0 1638l53 -10v-37l13 37l28 10h25l14 -151l12 149l54 -8l14 10l37 -12v-63l35 75l37 -14l16 -90l18 104h23v-200l-12 -37v-156l12 60v-199l-53 -330l-4 250l-11 -334l-41 -246h-20l-12 123l-9 -123h-20l-16 29l-3 -29h-20l-14 66l-6 -66h-41l-7 41l2 326l-16 -244
l-41 248l-2 133l-10 -51l-35 207l33 324l-33 -259v302l33 -363l-33 428v100zM12 309l13 10h22l25 -10l24 8l23 2h22l17 -57l32 55l17 -34l31 36l41 -2l12 -94l6 92l35 4h24l6 -26l17 8v-41l-19 -215l19 174v-119l-23 144l23 -185v-59h-23l-41 4v94l-10 -90l-45 -8l-20 27
l-17 -25l-37 23l-20 -25h-25l-45 8l-14 82l-2 -82l-33 -8h-47v41l6 25l-6 14v59l23 144l-23 -103v60l23 -86l-23 127v20z" />
    <glyph glyph-name="quotedbl" unicode="&#x22;" horiz-adv-x="653" 
d="M238 1376l-9 -16l-8 -19l-8 -18l-8 -18l-2 75l-15 -110l-8 -19l-10 -4l-8 -18l-6 -33l-9 -16l-8 -19l-8 64l-8 -101l-8 -18l-9 -16l-6 4l-6 6l-6 6l-6 6l-6 6l-4 6l-6 6l-7 5l-6 6l-6 6l-6 6l-6 6l-6 6l-6 6l-7 7l-6 4l6 10l4 8l7 10l4 9l8 -21l2 39l6 10l6 8l4 11l6 8
l3 -68l8 86l4 8l6 11l4 8l6 10h-6h-6h-6l-10 47l-3 -47h-6h-6h-6h-6h-4h-6l-6 121l-7 -121h-6h-6h-6v17v16v16v19v16v17v16v16v58l8 -60v80v16l-8 31v17v16v16h14l21 -8l12 -106v108l29 6h14l8 -6h15l22 6h14l23 -18l18 12l5 6l16 -10l14 10h15v-12v-14v-15l-21 -206l21 180
v-15v-12v-14v-55v-13v-14l-17 139l17 -168v-12v-14v-15zM614 1376l-8 -16l-8 -19l-8 -18l-8 -18l-2 75l-15 -110l-8 -19l-10 -4l-8 -18l-7 -33l-8 -16l-8 -19l-8 64l-8 -101l-8 -18l-9 -16l-6 4l-6 6l-6 6l-6 6l-4 6l-6 6l-7 6l-6 5l-6 6l-6 6l-6 6l-6 6l-6 6l-7 6l-6 7
l-6 4l6 10l4 8l6 10l5 9l8 -21l2 39l6 10l6 8l4 11l6 8l2 -68l9 86l4 8l6 11l6 8l4 10h-6h-6h-6l-11 47l-2 -47h-6h-6h-4h-6h-6h-6l-7 121l-6 -121h-6h-6h-6v17v16v16v19v16v17v16v16v58l8 -60v80v16l-8 31v17v16v16h14l21 -8l12 -106v108l29 6h14l8 -6h14l23 6h14l23 -18
l18 12l4 6l17 -10l14 10h14v-12v-14v-15l-20 -206l20 180v-15v-12v-14v-55v-13v-14l-14 139l14 -168v-12v-14v-15z" />
    <glyph glyph-name="quotesingle" unicode="'" horiz-adv-x="311" 
d="M260 1376l-8 -16l-8 -19l-8 -18l-9 -18l-2 75l-14 -110l-8 -19l-10 -4l-9 -18l-6 -33l-8 -16l-8 -19l-8 64l-9 -101l-8 -18l-8 -16l-6 4l-6 6l-6 6l-7 6l-6 6l-6 6l-4 6l-6 5l-6 6l-6 6l-7 6l-6 6l-6 6l-6 6l-6 7l-6 4l6 10l4 8l6 10l4 9l8 -21l2 39l7 10l4 8l6 11l6 8
l2 -68l8 86l4 8l6 11l5 8l6 10h-6h-7h-6l-10 47l-2 -47h-6h-6h-6h-7h-4h-6l-6 121l-6 -121h-6h-6h-7v17v16v16v19v16v17v16v16v58l9 -60v80v16l-9 31v17v16v16h15l20 -8l13 -106v108l28 6h15l8 -6h14l23 6h14l20 -18l21 12l4 6l16 -10l15 10h14v-12v-14v-15l-20 -206l20 180
v-15v-12v-14v-55v-13v-14l-16 139l16 -168v-12v-14v-15z" />
    <glyph glyph-name="comma" unicode="," horiz-adv-x="319" 
d="M258 53l-8 -18l-8 -17l-9 -18l-8 -18l-4 73l-12 -110l-8 -17l-13 -4l-8 -18l-4 -33l-8 -18l-10 -17l-8 64l-9 -101l-8 -18l-8 -19l-4 7l-6 6l-6 6l-7 6l-6 6l-6 6l-6 4l-6 7l-6 6l-6 6l-7 6l-6 6l-6 6l-6 4l-6 7l-6 6l6 10l4 8l6 10l6 9l6 -21l4 39l5 8l6 10l4 9l6 10
l4 -70l6 88l6 8l4 11l7 8l4 10h-7h-6h-6l-10 47v-47h-6h-6h-6h-7h-6h-6l-6 121l-6 -121h-6h-6h-7v17v16v16v17v16v18v17v16v58l9 -62v80v18l-9 31v17v16v16h15l22 -8l10 -106v108l29 6h14l9 -6h14l23 6h16l20 -18l21 12l4 6l14 -10l15 10h16v-12v-14v-15l-22 -206l22 180
v-15v-14v-12v-55v-15v-12l-16 139l16 -168v-12v-14v-15z" />
    <glyph glyph-name="hyphen" unicode="-" horiz-adv-x="774" 
d="M23 983h43h43l43 -39l41 39l38 -27l29 -165l-6 188l108 4h41l66 -14l80 4v-262l24 272l41 -20l43 20h43v-20v-21v-20l-43 -177l43 136v-21v-20l-28 -125l28 84v-21v-20l-22 127l22 -168v-21v-20v-21h-43l-73 23l-11 194l-10 -210l-74 -7l-40 45l-46 -45h-41h-43l-53 15
h-41l-32 -15h-43l-91 7v59l-36 -66v21v20v21v20l32 187l-32 -146v21v20v21v20v21v20l26 -156l-26 197v21v20z" />
    <glyph glyph-name="period" unicode="." horiz-adv-x="332" 
d="M10 315h15h14l18 -16l13 -8l12 24h16l17 -6h14l12 6h15l24 -16l6 -92l15 108h14h14l7 -8l8 -12v-21v-18l-6 -143l6 104v-20v-21v-18v-21v-18v-21l-8 -4l8 -35v-20v-19v-20h-15l-18 27l-12 -13l-15 -14h-14l-18 8l-11 -8h-14h-14l-17 43l-8 82l-12 -123l-23 -2h-14h-14
l-9 37l-6 -27v29v20v19v20v21l17 153l-17 -114v18v21v20v19l19 -166l-19 204v21v20z" />
    <glyph glyph-name="zero" unicode="0" 
d="M16 885l-2 -31l2 -45l2 33zM0 678l14 176l-14 250v-426zM924 948l4 25l-4 49l-2 -27zM0 326v-72l63 -64l5 125l26 -157l47 -47l23 14l16 8l8 -70l64 -63h27l30 29l25 -29h26l54 4v88l28 -92l41 16l15 -16h26l39 16l15 -16h110l14 16l15 148l4 -115l31 14l47 48l6 61
l16 -22l25 8l47 49l18 112l15 -81l16 16l-2 242l-14 79l16 33l-18 340l-21 -186l19 233l-15 277l17 -250l18 223v141l-16 17l-23 6l-6 25l-31 32l-12 -73l-16 104l-15 16l-43 13l13 18l-15 17l-22 2l-11 -50l-12 95l-28 30h-29l-35 -32l-23 32h-26l-45 -16l-23 -41l-18 57
h-29l-47 -4l-16 -16l-21 20h-28l-27 -28l-41 24l-16 -16l-29 20l-33 -30l-18 -66v25l-29 -6l-61 -64l-23 -96l-10 65l-62 -63l-16 -86v-72l16 -360l19 241l-17 -284l17 -381l-19 348l-16 -272l6 -54v-71zM375 815l8 133l-16 266l18 -229l12 221v125h27l8 94l8 -84v23l21 -33
h8l6 41l12 -41l9 70l10 -70h35l14 -174l20 103v-64l-12 -115l4 -49l-6 37l-20 -178l18 -172l-18 45v-62l12 -34v-64l-12 -92v-188h-17l-6 -50l-12 50h-27l-12 -107l-6 107h-10l-19 -25l2 25h-10l-2 -13l-27 -12l-16 25l35 75l-39 365l-13 -170l11 190l-19 318zM541 1079
l10 56l-10 71v-127zM375 764l2 29l-2 22l-2 -31zM561 1069l2 12l-8 76l-4 -22zM397 702l-12 205l-8 -114l20 -281v190zM942 1104l-14 -131l14 -223v354zM389 948l-4 37l-2 -37l2 -41zM397 1079l-8 -131l8 -121v252z" />
    <glyph glyph-name="one" unicode="1" horiz-adv-x="563" 
d="M537 1638v-307l-62 -1143l62 938v-409l-2 -187l-35 684v-102l37 -805v-307l-50 4l-4 45l-20 -45l-12 57l-33 -61l-25 16l-49 -16l8 29l-26 -29h-25l-51 8l4 148l-23 -156h-69v578l61 675l-61 -512v82l26 -155l-26 321v330h-31l-4 213l-16 -195l-11 -18h-10l-14 10l-6 -10
h-29l6 84l-27 -84h-20v213l39 12l20 -49l13 41l22 29l58 20l28 -49l15 43l14 27l18 6l23 -23l16 35l37 14h14v-219l19 219h41l14 -57l15 41l14 16h43l16 -354l13 354h45z" />
    <glyph glyph-name="two" unicode="2" 
d="M942 0h-59l-29 76l-16 -68l-131 -8l-56 12l-63 -12h-58l-45 33l-73 -33h-60l-162 8l-14 45l-53 -33l-21 113l-71 -129l-31 -4v313l35 240l-35 -170v70l43 -134l-43 203v37l176 162l72 65l-12 -233l45 264l139 131l61 49v-360l17 373l63 67v209l19 -8v57l-31 -20h-10
l-29 41l4 -41h-33l-8 90l-14 -57l-13 -33h-34l-9 129l-14 -129h-10v-41l-23 -45l23 18v-26l-23 -37l23 8v-27l-19 -6l19 -20v-41h-68l-22 104l-13 -100h-22l-33 -4l-22 16l-25 -16h-22l-25 16h-23l-20 -16h-68v286l105 111l16 -235l13 268l59 63l24 4l7 27l14 16h51l27 -53
l26 53h25l23 -12l28 12h27l24 -45l25 33l29 12h26l23 -16l28 16h52l34 -28l17 -312l2 279l33 -12l34 -29l13 -33l16 -14l23 2l32 -29l29 -32l8 -115l15 104l18 -16v-451l-37 -30l-55 -15l8 125l-29 -164l-63 -71l-72 -64l-20 -4l-35 -31l-49 -59l-70 -64l-65 -34l18 362
l-35 -387l-59 -65v-144h35l28 -69l27 69h51l35 -28l33 24l37 4h34l25 -135l16 119l101 16l45 -12l41 -21l18 33h37v-307z" />
    <glyph glyph-name="three" unicode="3" horiz-adv-x="950" 
d="M256 1638h47l25 -28l22 28h72l59 -16v-63l25 -33l8 76l27 36h94l119 -102l14 -262l18 233l119 -104v-395l-41 -33l-8 244l-14 -195l-17 -84l-67 -57l-15 32l-12 -55l-41 -33l27 -20l18 -168l8 147l54 -41l8 -75l14 45l19 2l67 -51v-136l-28 -211l28 158v-137l-37 205
l37 -258v-56l-78 -71l-12 35l-20 -64l-7 164l-12 -178l-28 -29l-95 -88h-51l-33 25l-16 -17l-29 -8h-78l-49 12l-8 49l-22 -61h-52l-24 61l-27 -61h-26l-45 47l-17 152l-12 -121l-29 33l-20 55l-15 16l-10 -24l-29 30l-14 76l-16 -45l-29 33v287h47l25 -43l22 43h47l39 -15
l4 -116l29 131h72l28 -56l11 41l30 15h25v-215h8l6 -91l13 91h36l9 -54l10 54h18l11 -121l8 121h26v247l56 -491l-56 534v68h-24l-21 45l-4 -45h-26l-15 53l-10 -53h-25l-20 70l-4 -70h-51v154l18 -109l-18 147v39l26 -170l-26 207v39h112l6 -170l21 170h61v64l23 258
l-23 -215v129l47 -185l-47 228v63h-45l-12 125l-6 -125h-37l-8 70l-10 -70h-27v-198h-25l-16 94l-8 -88l-47 -6l-21 14l-12 22l-37 -36h-25l-45 2l5 92l-31 -97h-119l2 254l47 48l21 -76l12 108l94 95l6 -220l27 252z" />
    <glyph glyph-name="four" unicode="4" horiz-adv-x="1137" 
d="M109 328l-109 309l72 125l55 24l4 -180l29 295l53 113l215 375l-4 -367l31 383l80 170l34 63h66l27 -39h22l16 39h23l22 -22l21 22h43l25 -114l16 63l27 -123l20 174h23v-254l-56 -682l56 555v-319l-48 467l48 -594v-190h81l9 -70h20l12 70h41v-293h-41l-16 92l-4 -92
h-51l-15 164l-6 -164h-30v-62l-23 -223l23 182v-123l-31 181l31 -222v-61h-48l-22 25l-16 30l-54 -55l-26 43l-17 -27l-26 -16h-45l-17 33l-26 -4l-27 -29h-45v328l-45 4l-6 135l-33 -139h-55l-17 71l-16 -67l-49 -4h-56l-55 4v76l-26 -80h-84zM551 621v28l43 393l-43 -333
v176l47 -250v31l-47 307v119l-162 -295l4 403l-35 -463l-65 -116h80l22 -62l11 62h49l16 -39l14 39h66z" />
    <glyph glyph-name="five" unicode="5" horiz-adv-x="965" 
d="M0 946v172l37 359l-37 -273v260l70 -346v45l-70 432v43h51l23 -51l14 49l115 2h100l49 -18l54 18l210 -2l19 -28l29 -13l28 -84l17 127h100v-307h-55l-23 99l-8 -93l-51 -6h-111l-53 10l4 48l-33 -58h-84l-35 19l9 -39v-19l-45 -229l45 190v-98l-41 158l41 -195v-98h18
l25 -27l12 27h37l18 -90l19 90h53l22 -47l15 47h74l49 -45l6 -170l18 117l23 10l80 -76l24 -57l8 28l50 -45v-102l-29 -424l29 356v-274l-60 352l60 -420v-34l-105 -103l-2 117l-29 -148l-102 -102h-86l-25 96l-16 -76l-45 -20h-29l-37 29l-20 -29h-57l-15 20l-43 -20h-86
l-14 14l-23 88l-6 -61l-41 41l-2 432l-26 -405l-41 41l-17 57l-14 12l-10 -29l-29 29v346h25l32 -119l21 93l18 26h74l-2 -278l27 278h120l25 -69l4 63l43 6v-256h25l2 -102l14 102h33l8 -45h16l7 45h24v72l12 4v72l-12 30l12 19v69l-12 43v72h-33l-30 43l-2 -41h-17l-14 19
l-12 59l-23 -78h-51l-25 23l-8 -23h-49l-64 64l-12 170l-18 -138l-47 48l2 47l-17 -13l-33 13z" />
    <glyph glyph-name="six" unicode="6" horiz-adv-x="952" 
d="M238 0l-45 47l-15 94l-14 -63l-90 94l-6 223l-23 -190l-45 47v215l12 47v72l-12 98v143l41 525l-41 -381v217l41 -486l-41 629v72l88 88l25 -135l14 14l6 166l45 43l19 -20l14 16l12 49l15 14h77l23 -61l20 61l31 -61l35 37l25 -21l28 21l17 -37h26l29 61h104l49 -47
l13 -389l18 357l96 -95l19 -92l12 60l47 -48v-268h-22l-21 35l-28 -35l-25 35l-20 43l-25 -78h-25l-18 256l-21 -250l-32 -6h-47l-27 115v-113l-45 -2l-6 19l-19 -5v201h-10l-12 66l-8 -66h-70l-12 99l-8 -99h-41v-67l-31 -183v-22l31 137v-225h41l14 -176l29 153l16 23h102
l23 -107l18 107h82l94 -94l19 -179l10 152l94 -92v-127l-16 -215l16 151v-315l-57 -64l-10 482l-9 -488l-26 -41l-43 -47l-2 240l-29 -271l-57 -63h-56l-22 45l-35 -33l-20 17l-31 -29h-164l-35 96l-20 -96h-53zM526 307v90l27 228v22l-27 -184v112l27 -186v23l-27 231v23
h-20l-8 77l-15 -49h-10l-16 -20l-4 20h-11l-6 -28h-10l-6 69l-14 -69h-41v-45l-23 -289l23 243v-155l-31 172l31 -217v-68h30l19 -133l2 133h20l13 -33h20l-2 -88l18 121h41z" />
    <glyph glyph-name="seven" unicode="7" horiz-adv-x="944" 
d="M0 0l365 911l-19 -585l53 671l133 334h-36l-13 168l-12 -168h-27l-20 101l-4 -101h-49l-23 58l-4 -58h-12v-147h-60l-12 37l-12 63l-21 -100h-102l-12 84l-17 -76l-35 -8h-61v141l25 279l-25 -222v86l41 -104l-41 160v114h55l88 -18l21 -184l4 190l113 12h112l56 -22h55
l57 22h57l189 -12l-12 -35l47 -8l2 55h55v-327l-53 -135l-4 112l-33 -223l-150 -410l-53 -176v232l-35 -301l-149 -410h-27l-4 174l-31 -131l-24 20v-57l-72 -6h-26l-15 23l-39 -23h-26l-25 55l-29 -55h-104z" />
    <glyph glyph-name="eight" unicode="8" horiz-adv-x="969" 
d="M922 231l-88 -86l-3 416l-26 -444l-60 -60l-12 80l-16 -108l-29 -29h-86l-14 84l-8 -68l-62 -16h-57l-27 16l-28 -16l-31 45l-27 -45h-29l-40 12h-27l-16 -12l-46 47l-6 152l-22 -121l-162 174v311l35 -284l-35 335v52l27 22l16 -35l10 58l56 45l8 -228l18 250l41 33
l17 -39l10 62l12 12l-33 26l-22 115l-2 -96l-125 98l18 387l-18 -336v260l43 -278l-43 330v51l76 74l12 -158l14 14l17 189l118 116h45l31 -57l16 33l17 -76l27 100h135l8 -61l16 61h68l16 -172l15 146l159 -137l13 -70l16 -12l18 41l17 -13v-82l-41 -295l41 242v-162
l-51 248l51 -301v-82l-72 -63l-10 96l-10 -113l-31 -28l-8 80l-13 -97l-20 -18l88 -80l12 -164l13 -10l12 141l74 -67v-136l-15 -81v-27l15 27v-218zM545 911l-2 217l24 183l-24 -137v67l28 -111v23l-28 156v22h-35l-16 90l-3 -90h-36l-17 62l-2 -62h-37v-360h29l12 -115
l4 115h29l8 -90l10 90h46zM543 307v359h-17l-6 57l-12 -57h-29l-10 28l-4 72l-12 -100h-56v-23l-22 -252l18 199l4 -15v-268h11l22 -65l-4 65h27l6 -61l16 28l4 33h19l16 -129l2 129h27z" />
    <glyph glyph-name="nine" unicode="9" horiz-adv-x="969" 
d="M922 231l-43 -43l-13 111l-8 -70l-24 -84l-15 -14l-20 -2l-8 -27l-31 -30l-10 82l-19 -111l-43 -43h-82l-6 45l-12 -45h-144l-61 8l-8 58l-17 -46l-12 105l-39 -125h-53l-96 94l-15 246v-219l-32 20l-111 111v287h72l20 -15l31 -51l4 47l39 19h94l16 -211l11 192l45 19
h47v-232h41l16 -170l10 129l19 -41l-4 82h51l10 -57l10 57h11v21l24 325l-24 -282v190l32 -258l-32 301v43h-58l-20 139l-2 -137l-35 -2h-39l-22 105l-17 -105h-114l-31 29l-12 248l-17 -219l-88 88l-29 421v-391l-59 58v522l63 59l5 -555l26 584l49 45l17 -72l14 101l80 73
h258l27 -71l26 71l39 -36h27l12 36h25l32 -28l29 -127l2 96l49 -43l27 -109l4 80l47 -45l12 -184l21 156l31 -31v-146l-23 -159v-199l23 139v-807zM555 920l8 45l-20 36v95l20 256l-20 -209v141l49 -240l-49 287h-31l-8 74l-12 -74h-21l-14 121l-6 -121h-72v-379h10l12 -75
l9 75h30l11 -133l10 133h71z" />
    <glyph glyph-name="colon" unicode=":" horiz-adv-x="332" 
d="M10 889h15h14l18 -17l13 -8l12 25h16l17 -6h14l12 6h15l24 -17l6 -92l15 109h14h14l7 -8l8 -13v-20v-19l-6 -143l6 105v-21v-20v-19v-20v-19v-20l-8 -4l8 -35v-21v-18v-21h-15l-18 27l-12 -12l-15 -15h-14l-18 9l-11 -9h-14h-14l-17 43l-8 82l-12 -123l-23 -2h-14h-14
l-9 37l-6 -26v28v21v18v21v20l17 154l-17 -115v19v20v21v18l19 -166l-19 205v20v21zM10 315h15h14l18 -16l13 -8l12 24h16l17 -6h14l12 6h15l24 -16l6 -92l15 108h14h14l7 -8l8 -12v-21v-18l-6 -143l6 104v-20v-21v-18v-21v-18v-21l-8 -4l8 -35v-20v-19v-20h-15l-18 27
l-12 -13l-15 -14h-14l-18 8l-11 -8h-14h-14l-17 43l-8 82l-12 -123l-23 -2h-14h-14l-9 37l-6 -27v29v20v19v20v21l17 153l-17 -114v18v21v20v19l19 -166l-19 204v21v20z" />
    <glyph glyph-name="semicolon" unicode=";" horiz-adv-x="332" 
d="M10 887h15h14l18 -15l13 -8l12 23h16l17 -4h14l12 4h15l24 -15l6 -92l15 107h14h14l7 -6l8 -13v-20v-19l-6 -143l6 102v-18v-20v-19v-20v-21v-18l-8 -4l8 -35v-21v-20v-19h-15l-18 27l-12 -14l-15 -13h-14l-18 9l-11 -9h-14h-14l-17 43l-8 82l-12 -123l-23 -2h-14h-14
l-9 37l-6 -26v28v21v18v21v18l17 156l-17 -115v19v20v18v21l19 -166l-19 205v20v19zM258 53l-8 -18l-8 -17l-9 -18l-8 -18l-4 73l-12 -110l-8 -17l-13 -4l-8 -18l-4 -33l-8 -18l-10 -17l-8 64l-9 -101l-8 -18l-8 -19l-4 7l-6 6l-6 6l-7 6l-6 6l-6 6l-6 4l-6 7l-6 6l-6 6
l-7 6l-6 6l-6 6l-6 4l-6 7l-6 6l6 10l4 8l6 10l6 9l6 -21l4 39l5 8l6 10l4 9l6 10l4 -70l6 88l6 8l4 11l7 8l4 10h-7h-6h-6l-10 47v-47h-6h-6h-6h-7h-6h-6l-6 121l-6 -121h-6h-6h-7v17v16v16v17v16v18v17v16v58l9 -62v80v18l-9 31v17v16v16h15l22 -8l10 -106v108l29 6h14
l9 -6h14l23 6h16l20 -18l21 12l4 6l14 -10l15 10h16v-12v-14v-15l-22 -206l22 180v-15v-14v-12v-55v-15v-12l-16 139l16 -168v-12v-14v-15z" />
    <glyph glyph-name="equal" unicode="=" horiz-adv-x="795" 
d="M10 1073h45h47l45 -24l46 24l51 -8l20 -115l-6 121l90 -4l70 6l67 -8l86 2v-168l17 162h55l45 12h45v-12v-14v-13l-47 -112l47 86v-13v-14l-31 -80l31 55v-14v-12l-24 80l24 -107v-12v-12v-15h-45l-80 15l-10 125l-10 -136l-121 -4l-18 35l-31 -35h-45h-45l-58 8h-45
l-32 -8h-46l-98 4v37l-39 -41v15v12v12v15l37 118l-37 -94v14v13v12v14v13v14l29 -100l-29 125v14v12zM731 563h-45h-45l-47 25l-43 -25l-53 8l-21 115l8 -121l-92 4l-67 -6l-70 8l-84 -2v168l-18 -162h-54l-47 -12h-45v12v15v12l47 113l-47 -86v12v12l31 82l-31 -55v14v13
l25 -80l-25 106v12v13v14h45l80 -14l10 -125l11 133l120 6l19 -35l33 35h45h45l55 -8h45l35 8h45l96 -6v-35l39 41v-14v-13v-12v-14l-35 -119l35 94v-14v-12v-15v-12v-12v-15l-29 101l29 -125v-15v-12z" />
    <glyph glyph-name="question" unicode="?" horiz-adv-x="913" 
d="M870 989l-16 -14l-14 -14l-15 -15l-14 -14l-16 117l-4 -109l-25 -53l-14 -15l-15 -14l-14 -14l-14 -15l-15 74l-16 -102l-14 -15l-15 -14l-14 -14v-21v-18v-19v-20v-18v-21v-18v-19v-20v-19v-18v-21v-18v-19v-20v-18h-25l-26 206l-4 -184l-45 -22h-25l-31 36l-20 -18
l-25 -18h-24h-25l-18 26l-33 -26h-25l-22 122l-27 -122h-24v20v23v20v21v22v21v22v21v20l10 12v21v20v23v20l-10 33v21l14 14l16 14l17 15l16 16l16 14l19 -49l28 57v35l17 15l16 16l17 14l14 15l16 -131l17 159l16 15l17 16v18v19v20v19v18v21v18v19v20l24 -401l-24 440v18
v19v20v19v18h-9h-8h-8h-8l-13 90l-4 -90h-8h-8h-8h-8h-9l5 154l-21 -154h-6h-8h-9v-18v-19v-20v-19v-18v-20v-19v-20v-19v-18v-21v-18v-19v-20v-19v-18h-22h-23l-16 160l-4 -125l-49 -35l-23 23l-22 -23h-23l-12 72l-8 -72l-43 10l-37 8l-12 37l-23 -55h-22h-23v25v24v25v24
v25v25v24v25v24v25v24v25v25v24v27v24l14 13l15 14l14 14l14 -55l17 82l14 12l14 15l15 14l14 12l12 -147l19 176l14 12l14 14l19 -12l10 39l17 14l26 -8l29 -41l18 49h25h26l27 -12h25l22 12h25h49l12 -100l15 100l26 -20l31 8l18 12h25l14 -14l17 -184l12 155l16 -16
l15 -14l14 -15l14 -14l15 -14l14 -15l8 -102l23 72l14 -15l14 -14l15 -14l14 -15l16 -16v-25l-47 -346l47 293v-25v-26v-25v-26v-27v-25v-26l-39 186l39 -237v-27v-27v-24v-27zM635 0h-25l-22 4l-29 -4l-22 16l-27 -16l-23 33l-28 -33h-25l-35 41l-12 -21l-27 -20h-26l-43 4
l-12 150l-19 -154h-24v20v21v20v19v20v21v20v21v20v21v20v19v20v21v20v21h24h25l24 -33l25 33h26l27 -33l23 33h24l29 -54l24 33l23 21l22 -21l27 21l16 -111l13 111h47v-21v-20l-27 -246l27 205v-19v-20v-21v-20v-21v-20v-21v-20l-19 141l19 -180v-21v-20z" />
    <glyph glyph-name="A" unicode="A" horiz-adv-x="969" 
d="M86 918c-2.66699 -7.33301 -7.49902 -15.833 -14.499 -25.5s-11.167 -15.834 -12.5 -18.501c-5.33301 -8 -12 -21.333 -20 -40l2 -5c11.333 16.667 18.666 30.334 21.999 41.001c1.33301 5.33301 5 10.333 11 15s9.33301 8 10 10c1.33301 4 2 11.667 2 23zM129.001 1266
v34.001c0 -2.66699 -0.166992 -4.83398 -0.5 -6.50098s-0.833008 -3.5 -1.5 -5.5v-8c0.666992 -2 1.16699 -4 1.5 -6s0.5 -4.66699 0.5 -8zM117.001 1165c0.666992 1.33301 2.49902 6.5 5.49902 15.5s5.16699 16.167 6.5 21.5v41c-26 -51.333 -39 -111.333 -39 -180v-37v-20
l4 -5c3.33301 8 7.83301 33.833 13.5 77.5s8.83398 66.5 9.50098 68.5v18zM690 1638c-28.667 0 -48.998 -3.33008 -60.998 -9.99707l-39 10l-19 -22l-26 14l-39 -12l-8 18l-111 2l-14 -36l-25 32l-61 4c-8 -9.33301 -21.167 -18.5 -39.5 -27.5s-34.5 -14.167 -48.5 -15.5
l-13 43h-34l-140 -884l11 10c2 21.333 7.33301 44.666 16 69.999l-2 20c0 23.333 8.16699 54 24.5 92s24.5 69.333 24.5 94c0 31.333 4.16699 77.666 12.5 138.999s13.166 99.666 14.499 114.999l16 6v3l4 -5v-49c-0.666992 -32 -5.16699 -75.333 -13.5 -130
s-14.833 -96 -19.5 -124l2 -28c0 -34 -8.66699 -67.667 -26 -101v-24c-5.33301 0 -8 -4.33301 -8 -13l-25 -4l-2 4c-0.666992 0 -3.66699 -10 -9 -30s-8.33301 -34.333 -9 -43c-6 0 -9.66699 -0.666992 -11 -2l-116 -750l38 2c14.667 23.333 25.667 39 33 47l17 -28l26 12
l4 -29l47 -4l23 10c4.66699 -1.33301 9.5 -3.33301 14.5 -6s8.5 -4 10.5 -4h24l27 29l18 -21l27 11l12 -23c12.667 2.66699 31.667 4 57 4l37 324h27l14 16c13.333 0 21.666 2.66699 24.999 8l16 -24h21l6 22l14 -22h12l15 18l10 -4l16 14l15 -14l2 -14h24l37 -324l31 4
l20 19l19 -23l22 14l27 -14l29 8l16 21l12 -31l37 2l25 37l24 -6l11 -21l34 -10l29 16l21 -16h22zM215.002 104.004c-16 -10.667 -29 -15.9971 -39 -15.9971c-10.667 0 -16 1.33301 -16 4c6.66699 4.66699 10.667 8.66699 12 12c1.33301 0 2 0.666992 2 2
c0 0.666992 -0.166992 1.16699 -0.5 1.5s-0.833008 0.666016 -1.5 0.999023s-1.5 0.166016 -2.5 -0.500977s-2.16699 -1.33398 -3.5 -2.00098l-2 3c0 4 -0.166992 7.5 -0.5 10.5s-0.833008 6.16699 -1.5 9.5c0 0.666992 0.333008 1.5 1 2.5l1 1.5
c21.333 0 38.333 -5.33301 51 -16v-13zM272.002 1563.01c0.666992 -6 1.16699 -11.665 1.5 -16.998s0.5 -12 0.5 -20c-1.33301 1.33301 -3.33301 2 -6 2c-3.33301 0 -6.16602 -0.166992 -8.49902 -0.5s-4.83301 -0.833008 -7.5 -1.5c-8 0 -12 4 -12 12l3 9.5
c2 6.33301 3 12.166 3 17.499c0 4.66699 3.66699 9.16699 11 13.5s11.666 9.16602 12.999 14.499l9 33c0 -20.667 -1.66699 -35.667 -5 -45c-1.33301 -4 -2 -10 -2 -18zM498.002 633.009c-10 -6.66699 -14.999 -15.667 -14.999 -27l-18 15l-4 12h-19
c-8 -3.33301 -14 -13 -18 -29l-16 -4l-9 25l-14 8h-12c-8.66699 -8 -16.334 -21.667 -23.001 -41l-10 41h-12l73 684h37l72 -684h-12zM485.003 1573.01l-0.000976562 12h13v12l-29 5h23h6c13.333 0 20 -4.33301 20 -13c0 -4 -2.83301 -8 -8.5 -12s-11.5 -6 -17.5 -6
c-3.33301 0 -5.66602 0.666992 -6.99902 2zM666.002 86.0088c-2.66699 0 -4 -0.666992 -4 -2c0 -0.666992 0.666992 -1.66699 2 -3s2 -2.33301 2 -3s-0.166992 -1.16699 -0.5 -1.5s-0.833008 -0.5 -1.5 -0.5c-6.66699 -6.66699 -13.667 -10 -21 -10l-2 2
c-5.33301 13.333 -8 23.333 -8 30c0 6 1.33301 13 4 21l12 6c22 -15.333 33 -31 33 -47l-6 4c-4 2.66699 -7.33301 4 -10 4zM860.002 254.009c0 28 -5.16699 68.6689 -15.5 122.002s-15.5 89.666 -15.5 108.999c0 12.667 -2 26.667 -6 42s-10.333 34.333 -19 57
s-14.667 40 -18 52s-5.33301 22.667 -6 32c-1.33301 17.333 -2.66602 31.5 -3.99902 42.5s-3 21.667 -5 32s-4.33301 24.166 -7 41.499c-4 24.667 -6 49.334 -6 74.001c0.666992 14.667 1.16699 28.167 1.5 40.5s0.5 28.166 0.5 47.499c0 20.667 -0.666992 36.334 -2 47.001
c-1.33301 8 -4.5 18.167 -9.5 30.5s-7.5 23.5 -7.5 33.5l2 43c6 -2.66699 9 -17 9 -43c0 -12 2 -46.833 6 -104.5s7.66699 -104.5 11 -140.5s5.66602 -55.333 6.99902 -58c26 -81.333 46.5 -161.333 61.5 -240s22.5 -159.334 22.5 -242.001v-18zM4.00195 743.011l8 11
c-5.33301 -5.33301 -8 -9 -8 -11z" />
    <glyph glyph-name="B" unicode="B" 
d="M942 666l-33 -13l-4 17l-20 12l-2 29l-35 -4l-14 12l6 24l-31 23l-23 -4l-6 26l-45 33l-26 -20l-2 43l49 37l2 32l22 -14l2 31l23 8l24 39l2 -43l50 37l-11 22l13 13l24 10v53l-12 12v27l12 41v55l-12 29l12 24v136l-24 2l10 37l-27 28l-20 -8l-6 35l-15 14l-16 -6
l-10 33l-15 -88l-14 114l-12 15l-19 -8l-14 14l-8 35l-17 -11l-32 17l-23 20l-74 -12l-45 -33l-10 45l-45 -16l-41 16l-65 2l-39 -26l-68 24h-43l-51 -16l-35 16l-55 -28l-31 28l-37 -8l-6 -94v-102l8 -127l23 243l-19 -323l19 -328l-23 252l-8 -127v-305l2 -62l16 -82
l13 -237l-21 104l-10 -235l14 -105l-14 -100h86l70 35l16 -23l47 6l39 -18h43l41 8l47 19l41 -27l88 2l21 18l51 17l12 -37h43l27 12l33 2l20 54l12 -25l17 6l14 23l33 30l10 43l23 -6l24 11l-12 116l26 -86l23 8l16 15v18l23 -8l8 47v53l-18 19l18 35v82l-10 24l10 29v164z
M817 1071c0.666992 2 2.83301 7.33203 6.5 15.999s5.5 16.334 5.5 23.001c12.667 -2 19 -11 19 -27c-2 -4.66699 -5.66699 -10.667 -11 -18l-18 -25c-1.33301 6 -2 16.333 -2 31zM65.999 62.999l-2.99902 8.99902c-2.66699 0 -4.83398 1.83301 -6.50098 5.5
s-2.83398 5.83398 -3.50098 6.50098c2.66699 -10.667 4 -21 4 -31h-10v47c10.667 0 18.334 -4.66699 23.001 -14c4 -4 6 -8 6 -12c0 -3.33301 -3.33301 -7 -10 -11zM86 1513c-3.33301 0 -7.33301 3.66699 -12 11v20l-2 15c2 -2 3.66699 -6 5 -12s4.33301 -9.66699 9 -11v-23
zM551 458.998l-6 -41v-90l-6 -11l-4 -10h-11l-16 -76l-6 60l-21 -17l-6 33h-10l-10 -14l-13 6l-8 8l-26 -26l6 26h-31v246l-4 27l-10 -129l-7 256l17 -127l4 41v45h10l25 20l-4 -20l16 32l16 -14l-2 -18h11l16 10l4 -10l17 14l4 18l12 -2l20 21l2 -33l5 -18h10v-181l6 -26
l8 65l4 -129zM565 982.998l-16 139l-4 -18v-135h-10l-3 -19l-14 11l-6 -7l-16 15h-11l-8 -82l-12 67l-16 2l-5 13h-41l-8 -11l-20 17l8 16v338h10l10 21h11l10 -21l8 12v-2l23 -10l-6 17l26 -17h10l7 10l12 19l10 -15l12 -4l9 -10h10v-135l-2 -12l6 -60l20 92zM8 1305
l-8 -78l8 -78l4 76z" />
    <glyph glyph-name="C" unicode="C" horiz-adv-x="977" 
d="M4 879l2 43l-2 28v-71zM381 586l6 47l-6 51l-4 -49zM905 700l-55 -6v-41l-16 47h-72l-39 -8l-6 -53l-27 43l-28 4l-17 14h-24l-25 -36v34l-47 2v-49l4 -28l-4 -21v-196l4 -31l14 123l-12 -144l18 -223l-20 201l-4 -25h-8l-13 -57l-8 33l-10 24h-10l-13 -80l-2 74l-16 6
h-10l-17 -31l-4 31h-10l-16 -8l-4 8l-9 -24l-24 6l4 67l8 80v66l-6 84l-16 -117l12 166l-17 231l21 -182l6 78v131l-8 65l8 66v66l-8 61l-2 106l6 70l-4 29l18 -6h21l6 82l14 -82h11l4 18h10l16 -18l8 41l13 -41h10l6 10l14 -10h11l8 12v-35v-63l8 -21v-22l-8 -21v-86
l10 -29l-10 -14v-63h24l23 16l25 -16l34 8l19 37l10 -29l31 -16l26 8l21 -8l39 2l22 22l17 -16l24 -10l19 63l22 -61l25 6l-2 18v148l-8 16l8 33v49l-13 29l13 20v49l-17 19v22l-16 15l-21 -50l-14 78l-33 29h-24l-10 31l-17 14l-18 2l-29 37l2 -70l-22 90l-35 29l-35 4
l-14 12l-39 -2l-2 -49l-25 49h-27l-34 -24l-6 16l-46 -2l-12 10h-49l-23 -47l-16 31l-37 16h-49l-10 -32l-21 -9l-16 -16l-16 -6l-33 -31l-14 -39l-17 6l-31 -36l-6 -113l-12 102l-31 -32l-12 -109l-8 88l-29 -27v-286l8 -101l17 273l-15 -312l58 -430l-62 355l-6 -146v-215
l12 -78l-12 -65l-4 -123l16 -4l4 -33l19 -14l16 49l6 -57l29 -35l16 -15l19 101l16 -129l11 18l22 -49l64 -53l16 98l6 -117l16 -14h54l26 39l31 -29l21 -10h51l26 23l27 -23h25l43 10l18 27l25 -12l18 -25h27l18 16h23l43 47l20 117l14 -49l-20 -39l45 33l14 16l11 31h18
l31 33l18 131l2 -107l10 39l13 11v112l-6 27v33l6 24v57l-8 27l8 29v86l-6 24zM285 1524l-0.000976562 -21.002h-9c0 5.33301 -1 9.33301 -3 12s-6.66699 6.83398 -14 12.501s-11.666 9.83398 -12.999 12.501c0 12.667 4 19 12 19c4.66699 0 10.667 -5.66699 18 -17
c2 0 5.5 1.33301 10.5 4s9.16699 4.66699 12.5 6c0 -12.667 -4.66699 -22 -14 -28zM339.999 157.998c-2 0 -4.16504 0.833008 -6.49805 2.5s-3.5 2.83398 -3.5 3.50098c0 83.333 0.333008 154.333 1 213s2 115.5 4 170.5s5.66699 116.833 11 185.5
c0 -64 -0.166992 -111.833 -0.5 -143.5s-0.833008 -71.334 -1.5 -119.001s-1.33398 -99.5 -2.00098 -155.5s-1.33398 -108.333 -2.00098 -157zM686.001 581.998c-4.66699 -4.66699 -7.33398 -7 -8.00098 -7c-2.66699 0 -4.66699 4.66699 -6 14
s-2.66602 15.666 -3.99902 18.999c14.667 0 22 -5.33301 22 -16c0 -5.33301 -1.33301 -8.66602 -4 -9.99902zM553.001 374.998l-4 -19l4 -24l2 22zM12.001 994.998l-6 -73l4 -41l4 75z" />
    <glyph glyph-name="D" unicode="D" 
d="M20 1106l-10 -94l4 -74l9 115zM0 922l10 90l-10 123v-213zM561 895l-4 -55l4 -21l4 53zM909 1434l-6 -35l-12 47l-35 8l-14 37l-19 16l-14 -53l-18 57l-17 39l-22 -8l-13 37l-12 -8l-22 24h-23l-20 37l-31 6l-78 -16v-78l-16 60l-45 28h-56l-57 6l-31 -16l-67 -10l-7 -88
l-14 108h-74l-63 -65l24 59l-104 12l-2 -34l-39 -17l-2 -153l20 -328l19 172l-16 -225l12 -209v-191l-21 285l-14 -219v-410l8 -174l12 166l-6 -283l-6 117l-8 -133l45 8l53 -10l64 18v68l57 -72l39 -12h61l72 21l12 133l27 -154h43l43 21l43 -21l45 8l41 -8h43l17 16l10 45
l22 -14l31 31l14 86l19 -16l-2 -31l32 24l13 25l28 20l5 41l18 -22l16 14l-10 84l33 -31l8 52v215l-6 90l-18 -129l14 178l-14 168l18 -115l6 96v144l-10 67l10 76l-10 64l10 80v145zM348 930c-3.33301 0 -5.83105 0.5 -7.49805 1.5s-2.5 1.83301 -2.5 2.5
c0 84 0.333008 155.333 1 214s2 115.834 4 171.501s5.66699 117.5 11 185.5c0 -64.667 -0.166992 -112.834 -0.5 -144.501s-0.833008 -71.5 -1.5 -119.5s-1.33398 -99.833 -2.00098 -155.5s-1.33398 -107.5 -2.00098 -155.5zM561.002 819l-16 -237l8 -80l-8 -49l4 -74
l-4 -53h-21l-8 -21l-10 6l-14 -30l2 30l-19 15l-12 -129l-4 120l-2 -16l-23 25h-10v-21l-21 21h-20v127l-10 73l10 56v192l-8 53l8 76v127l-10 105l10 24v64l-4 108l-21 39l31 -4l14 -14h31l23 100l4 -59l4 -17l10 -24h29l-2 20l14 12l19 -32h10v-64l4 -84l-4 -45v-129
l16 -135l17 186l-13 -209l25 -208zM881.002 1323l-9 -0.000976562c0 24.667 -1.33301 43 -4 55l-12 4h21c0 -9.33301 2.66699 -16.666 8 -21.999c0 -20.667 -1.33301 -33 -4 -37zM936.002 630.999l6 53l-6 49l-4 -53zM545.002 710.999l12 129l-12 63v-192z" />
    <glyph glyph-name="E" unicode="E" horiz-adv-x="739" 
d="M25 584l2 -54l2 19l-2 51zM0 717v-84l4 -86l21 37l-25 440v-307zM702 1577v39l-18 6l-25 12l-163 4l14 -20l-41 8l-29 -37l-10 29l-78 16h-45l-45 -8l-76 10l-12 -88l-20 88l-66 -2l-41 -8l-47 8v-407l27 -627l32 182l-30 -233l34 -242l-43 189l-20 -187l12 -90l-4 -94
l-8 -121h25l10 37l24 -16l9 -21l86 4l112 -8l45 20l41 -16l37 12l51 -12h43l101 8l-9 49l39 -57h45l25 8l18 11v38l-14 5l14 34v58l-22 24l22 13v96l-8 6l-20 -8l-8 20h-39l-19 -16l-20 16h-19l-32 -12l-5 12h-57l-18 -49l-21 49h-18l-33 -12l12 39l-12 29l-8 28l12 25l8 20
v51l-8 27v27l8 24v129l-4 45l25 -8l12 -12h14l17 20l16 -20h86l37 20l18 -20h17l16 20v37l-8 17l8 22v19l-18 18l18 18v76l-8 -8l8 47v19h-18l2 18h-31l-12 -14l-21 14l-12 -10l-16 -4l-19 14h-30l-9 -96l-12 94l-29 2v-31l-30 31h-17v96l-4 -8l4 45v21l-12 -19l12 55v58
l-12 26l12 13v18h21l14 21l23 -21l6 17l33 -17l20 41l4 -33l33 -8l29 17l8 -17h39l20 21l19 -21h36v76l-14 43l14 -4v18l-18 17l18 22v39l3 21zM88 1395c-2.66699 -12 -4 -20.332 -4 -24.999v-287c-5.33301 5.33301 -8 11 -8 17v145c0 45.333 2.66699 87 8 125v186l4 -12
c6.66699 -22 10 -43 10 -63c0 -10.667 -3.33301 -39.334 -10 -86.001zM637 1403c-2.66699 0 -6.00098 -0.666992 -10.001 -2s-7.66699 -2 -11 -2v-13h-8c-5.33301 6 -8 17 -8 33c2.66699 5.33301 12.334 8 29.001 8c2.66699 0 4 3 4 9h10c0 -22 -2 -33 -6 -33z" />
    <glyph glyph-name="F" unicode="F" horiz-adv-x="780" 
d="M383 1141v20v19v18v21v18v18v21l-21 -57l21 -97v19zM383 262v45v43l-21 47l21 -178v43zM362 397l-2 4v-2zM6 1104l-6 -82v-102l16 161l-16 146zM383 481v45v43l-14 -112l14 -19v43zM358 1210l4 9l-4 16l-2 -8zM743 1636l-57 -8l-57 10l-4 -34l-29 34h-55l-54 -26l-16 -21
l-39 37l-106 8h-47l-66 2l-72 -14l-12 -72l-37 84l-82 2l-10 -206l23 -289l20 203l-16 -248l28 -375l-35 309l-20 -315l10 -107l-10 -98v-102l18 -111l-18 -94v-103l2 -61l23 -41l30 29l17 -29h47l14 20l31 -16l33 12l18 -16l31 16l16 -16h25l26 57l25 -41l20 -16h25v43
l-21 45l21 43l-25 248l-32 -254l30 281l-2 6l-71 157l65 -86l-18 185l22 -189l10 -14l21 192v43h18l15 19l20 -19h37l35 27l10 104l6 -108l21 -23h37l8 19l28 -19h35v19l19 2v18l-15 29l15 10l-15 19v18l15 21v94l-23 12l23 27l-10 28l-25 11l-29 -2l-4 -33l-43 33l-88 2
l-18 -123l-4 112l-31 11h-19l-39 -11l21 29v57l-25 127l-53 -147l51 164l-34 180l36 -172l25 78h23l26 16l19 -16h45l20 33l25 -33l24 16l31 21l12 -37h45l37 16l8 70l23 -86h22v121l-16 8l16 33v81l-24 -98l24 137v41zM96 76h-8.00098c-8 49.333 -12 122.333 -12 219
c0 -55.333 6.66699 -119.666 20 -192.999v64l4 -82c-0.666992 3.33301 -1.16699 6.16602 -1.5 8.49902s-1.16602 5.5 -2.49902 9.5v-26zM359.999 401l9 56l-7 8l-4 -37zM357.999 428l-6 51l-4 4l6 -71l2 -2zM355.999 406l2 -27l2 20l-4 11v-4zM22.999 1143l-7 -62l4 -49
l7 66z" />
    <glyph glyph-name="G" unicode="G" 
d="M397 811l-14 53l14 72v63l-26 -157l26 -135v104zM942 1384l-35 33l-18 -37l-17 68l-32 33l-15 -25l-20 55l-35 33l-6 -35l-25 17l-22 -92l-15 174l-34 30h-50l-24 -24l-25 24h-75l-48 -8l-8 -80l-20 64l-23 24h-76l-10 -12h-24l-31 -4l-27 -33l-4 -92l-20 78l-51 -47v-23
l-33 -10l-17 -14l-24 -33l-12 -105l-15 89l-51 -48v-143l12 -94l31 129l-25 -180l17 -123l-23 78l-12 -99l6 -63l-6 -80v-72l14 -84l-4 -100l-10 -33v-71l14 -70l-14 -74v-74l16 -14l13 19l18 -48l16 -14l23 -33l12 260l13 -270l47 -43l37 -27l8 39l16 133l2 -204l33 -29h47
l23 61l4 -45l39 -16h57l27 16l30 -16l29 49l14 -43l43 4l27 -10h113l28 92v-63l74 73l2 37l14 15l29 -9l29 29l30 88l-2 -59l31 28v78l-16 23l16 53v154l-45 -185l45 262v76l-16 51l16 25v78h-31l-22 -10l-35 -146l-12 101l-21 -21v70l-116 6l-37 -19l-21 19h-31l-28 -15
l-31 15l-27 -27l-20 -41l-21 70l-20 -21v-288h35l-2 43l12 -43h6l6 110l6 -110h29v-86l19 4v-35l-19 -14v-29l14 -19l-14 -10v-43h-20l-9 -78l-12 78h-20l-4 -28l-17 28h-10l-8 -33l-12 33h-31l8 -20l-37 -8l8 90l-12 67l12 60v127l-30 188l-58 -346l51 383l-51 311l56 -282
l32 249v64l-16 57l16 68h52l2 65l18 -65h10l6 45l15 -45l12 166l8 -166h31l20 28l-10 -47v-90l14 -28l5 -21l-19 -4v-37l14 -26l-14 -11v-37l14 -6l9 -10h49l26 23l29 -9l21 125l12 -116l31 -23l24 14l23 -14h24l23 39l22 -25l25 -14h25l4 18l20 5v133l-16 20l-4 25l20 22
v23l-24 12l24 33v67zM752 250c14 0 24.6689 5.33301 32.002 16c11.333 0 18.333 -2.66699 21 -8c0 -6 -2 -16.333 -6 -31s-6 -27 -6 -37h-13v39c-2.66699 0 -7.33398 -0.666992 -14.001 -2s-11.334 -2 -14.001 -2v25zM12.002 1147l-12 -51l12 -45l6 45zM367.002 811l4 31
l-6 35l-5 -29z" />
    <glyph glyph-name="H" unicode="H" horiz-adv-x="979" 
d="M391 1305l-12 43l12 41v124l-20 -174l20 -77v43zM369 1321l2 18l-4 15l-2 -17zM932 1638l-39 -6l-12 -106l-19 88l-24 24l-23 -10l-24 10h-25l-35 -14l-12 14l-19 -24l-18 -51l-14 67l-43 8l-35 -6h-23l-14 6v-41l14 -170l-14 86v-83l6 -64v-41l-6 -20v-84l18 -37
l-18 -47v-41l-4 -74l16 -10l-4 -58l-18 17h-21l-2 -144l-16 121l-8 -39l-15 62h-18l-4 -13l-17 13h-20l-10 -39l-11 39h-10v246l-22 104l-33 -270l29 286l-29 129l31 -112l24 243v41l-29 -8l-20 8l-27 -20l-18 -66l-21 78l-32 -2l-21 10h-24l-27 -22l-20 22l-52 -10l-6 -45
l-33 27l-6 28h-24v-47l-23 -55v-205l17 -305v-102l-17 100v-102l31 -390l33 355l-31 -383l12 -168l-14 145l-39 -479l31 -2l24 31l21 -23l43 6l8 -14l39 8l22 58l13 -56l26 6l25 -6l18 -10h49l19 47l12 -39l41 -8v125l-10 35v43l10 47v125l-22 -13l6 68l16 70v166h10l7 16
l8 10l16 -26h10l7 125l12 -109l10 -16h10l11 16l10 -16h10l20 45l11 -45h10v-250l59 499l-59 -581v-84l6 -35v-41l4 -70l-10 -20v-43l33 -23l-27 -16l41 -2l18 41l15 -25l31 -2l8 -12l47 -2h47l39 25l8 -25l29 14l18 -14l25 84v-82l47 10v90l-8 88v103l8 117v204l-39 -409
l39 614l-12 -35l4 217v205l8 23v205l-80 -437zM125 1518c-11.333 -18.667 -25 -29.666 -41 -32.999c0 23.333 -4 45 -12 65c4 0 8.83301 1.5 14.5 4.5s10.167 4.5 13.5 4.5c16.667 -10.667 25 -24.334 25 -41.001zM743 80.001
c-1.33301 -3.33301 -6.33203 -6.99805 -14.999 -10.998s-14.334 -9.33301 -17.001 -16c-1.33301 -1.33301 -4.83301 -2 -10.5 -2s-9.16699 -0.666992 -10.5 -2c1.33301 1.33301 2 4.16602 2 8.49902s0.666992 7.16602 2 8.49902c15.333 16 26.333 33 33 51
c1.33301 1.33301 3.33301 2.66602 6 3.99902s4.66699 2.66602 6 3.99902c1.33301 2.66699 2 6.83398 2 12.501s0.666992 9.83398 2 12.501c0 -14 1.66699 -27.667 5 -41c0 -14 -1.66699 -23.667 -5 -29zM8.00098 614.003l12 -110l-12 -94v-205l29 303l-21 194z
M39.001 532.003l-2 -24l2 -27l2 23z" />
    <glyph glyph-name="I" unicode="I" horiz-adv-x="412" 
d="M317 524l62 430l-4 58l16 10l-4 74v41l-18 47l18 37v84l-6 20v41l6 64v83l-14 -86l14 170v41l-14 -6h-23l-33 -65l-34 49l-25 -92l-16 90l-21 24l-12 -14l-37 -12l-22 26l-25 -10l-23 10l-39 -22l-12 -70l-4 86l-47 -8l88 -627l-80 437v-160l8 -68v-205l4 -217l-12 35
l39 -614l-39 409v-204l8 -117v-103l-8 -88v-102l41 14l6 70l25 -84l18 14l41 -8l17 53l18 -59h47l39 14l31 56l12 -60l19 31l18 -41l41 2l-6 16l12 23v43l-10 20l4 70v41l6 35v84l-41 622l41 -540v250l-16 112zM49 1004c1.33301 -2.66699 2 -6.83301 2 -12.5
s0.666992 -9.83398 2 -12.501c1.33301 -1.33301 3.66602 -2.83301 6.99902 -4.5s5.33301 -2.83398 6 -3.50098c8.66699 -18 20 -35 34 -51c1.33301 -1.33301 2 -4.16602 2 -8.49902s0.666992 -7.16602 2 -8.49902c-1.33301 1.33301 -4.66602 2 -9.99902 2
s-8.66602 0.666992 -9.99902 2c-2.66699 6 -8.83398 11 -18.501 15s-15.167 8 -16.5 12v70z" />
    <glyph glyph-name="J" unicode="J" horiz-adv-x="911" 
d="M344 504l-12 -35l12 -45v80zM487 1047l2 -68l11 -86l-11 -78v-82l29 146l-29 266zM866 698l2 60l-12 82l12 94v264l-28 -418l28 -196zM524 907l-6 -28l4 -39l4 34zM836 719l4 61l-4 25l-5 -60zM328 459l4 10l-4 12l-2 -8zM868 1636h-22l-10 -49l-37 25l-25 -13l-8 39
l-37 -10l-27 8h-22l-14 -24l-17 16l-41 8h-47l-24 -16l-23 16h-25v-163l15 -91l-15 -73l35 -402l17 90l-15 -123l31 -372l-35 338l-33 -271v-245h-26l-8 -78l-11 78h-18l-4 -29l-14 29l-7 -91l-12 91h-27l-12 -17l-37 -8v37l31 26v21l-16 76l-23 -64l21 78l-17 76l19 -68
l16 64v82l6 8h-20l-29 10l-12 -39l-17 29l-34 10h-23l-22 -55l-21 55h-43l-25 -31l-12 -45l-26 76l-19 -14h-20l-27 14v-153l18 -19l-8 -18v-27l-10 -41v-78l10 -22l-10 -29v-27l31 -28l24 69l4 -61l21 -51l63 -58l13 33l18 -63l16 -15l27 9l16 -29l5 -23l16 -14h22l11 12
h22l35 -12l37 25l14 -13l19 -12h67l43 33l13 33l12 -13l22 -53h45l48 43l10 86l22 -57l47 45l23 114l12 -45l13 -26l30 28l15 54l16 -25l16 14v177l-32 311l-29 -395l24 421l-32 306l37 -246l32 567l-12 74l12 102v88zM799 1516c-4 -8 -9.83301 -16.167 -17.5 -24.5
s-14.167 -12.5 -19.5 -12.5c0 32.667 -4 53 -12 61c2.66699 0 6.83398 -1.83301 12.501 -5.5s9.5 -7.16699 11.5 -10.5c0 2.66699 -0.5 6 -1.5 10l-3 12c-1 4 -1.5 7.33301 -1.5 10c0 10 3.33301 15 10 15c6 -2 11.667 -6.16699 17 -12.5s8.66602 -13.833 9.99902 -22.5
c0 -7.33301 -2 -14 -6 -20z" />
    <glyph glyph-name="K" unicode="K" horiz-adv-x="1143" 
d="M0 1227v-103v-102v-102v-101l14 146l-14 364v-102zM0 614v-102l27 180l-9 178zM18 997l-4 -32l4 -95l5 37zM356 332l2 14l-4 29l-2 -15zM29 707l-2 -15l4 -90v16zM1040 109h-24l-23 106l-24 55l-37 37l-10 70l-72 164v-101l-49 207l-23 55l-28 5l-21 102l-22 55l38 97
l41 174v-78l62 145l22 70l-4 41l43 35l39 114l-12 62l31 -17l24 33l39 96h-49l-6 -24l-43 24h-25l-24 -12l-37 -16l-12 28l-35 2l-29 -18l-37 16l-33 -57l-20 49l-45 8l-17 -43l-26 -198l-4 112l-47 -127l-2 -67l-31 -19l-31 -86l-14 -174l-17 88l-63 -170v213l-23 19v55
l21 49l-21 37l21 49l2 49v170l-10 27l-27 -8l-10 24h-49l-15 -32l-20 -29l-37 61h-25l-18 -24l-29 24l-24 -12l-23 12l-41 -20l-4 -49l-26 69h-25v-102l18 -537l33 328l-28 -418l6 -200l41 278l-39 -367l12 -356l-12 340l-31 -295v-102l14 -96l-14 -109l43 20l4 -20h25
l22 41l12 -33l41 8l21 -16h22l33 12l17 -12l28 12l19 -12l30 37l5 -25l36 -12h25v84l-27 248l-34 -154l30 182l-22 201l24 -186l29 166v125l51 -125l12 8l21 -92l68 -166l4 96l30 -180l84 -207h27l20 53l25 -28l37 -25h26l50 20l8 25l24 -45h54v76l28 -76h27l33 16l22 -16
h56zM102 1503c0 12.667 0.666992 20.332 2 22.999c-6.66699 6.66699 -10 15.334 -10 26.001l-12 -16c-5.33301 0 -8 1.33301 -8 4v31h24v-10h8c3.33301 -6 5 -15.667 5 -29c-2.66699 0 -5 -2 -7 -6c2 -1.33301 3.83301 -2.83301 5.5 -4.5l5.5 -5.5c0 -2 -2.16699 -4 -6.5 -6
s-6.5 -4.33301 -6.5 -7zM430 742.998c-4 2.66699 -7.16602 6.00195 -9.49902 10.002l-6.5 11c-2.66699 8 -4 22.333 -4 43c-20 23.333 -32.333 43.666 -37 60.999c-2.66699 10 -5.33398 24 -8.00098 42s-5.66699 31.333 -9 40c-4 10.667 -6 19.667 -6 27
c-5.33301 18 -14 50 -26 96l-15 23l13 -17c1.33301 -1.33301 2 -3.33301 2 -6c2 -2.66699 3.83301 -5 5.5 -7s3.16699 -4.33301 4.5 -7c8 -12 13.333 -39.333 16 -82c23.333 -70 42 -121.333 56 -154c0.666992 -1.33301 1.16699 -3 1.5 -5l1 -6
c0.333008 -2 0.833008 -3.66699 1.5 -5l11 -13c4 -4.66699 7 -9.33398 9 -14.001v-37zM709.001 129c-4 -8 -13.668 -14.667 -29.001 -20v-9c10.667 0 17.334 -2.66699 20.001 -8c0 -1.33301 -0.666992 -3.33301 -2 -6s-2 -4.66699 -2 -6h-28c0 6 -2.16699 15 -6.5 27
s-6.5 23.333 -6.5 34c2.66699 2.66699 7 4 13 4v-8h20v33c0 -8 4.16699 -15.167 12.5 -21.5s12.5 -10.833 12.5 -13.5c0 -1.33301 -1.33301 -3.33301 -4 -6zM383 207v43v41l-10 53l10 31v41v41l-25 -111l25 -180v41z" />
    <glyph glyph-name="L" unicode="L" horiz-adv-x="762" 
d="M0 1229l8 63l-8 39v-102zM383 1223l-14 -228l14 -106v334zM383 639v84l-18 207l-7 -107zM725 172v39l-25 -47l11 -39zM711 100l4 11l-4 14l-2 -10zM725 133l-10 -22l10 -35v57zM0 512l4 82l-4 20v-102zM350 766l2 -21l6 78l-4 23zM696 160l4 4l-6 14v-4zM365 930l4 65
l-4 33l-5 -59zM16 1382l-8 -90l6 -41l6 97zM725 307l-27 -28l-16 28h-41l-23 -45l-20 45h-66l-20 -16h-23l-20 16l-45 -8l-16 -78l-2 86l-33 -12l10 178l-31 272l-20 -329l18 350l-63 577l67 -497l6 123l-20 233l25 -174l18 361l-14 71l14 94v84l-23 -12l-24 12l-8 -32h-25
l-39 32h-49l-25 -24l-22 24h-25l-20 -53l-27 53h-24l-19 -16l-28 16h-25v-102l16 -154l17 140l-13 -174l37 -326l-43 229l-14 -227v-102l8 -91l2 -40l6 145v-229l25 -375l-25 172v-205l-16 -94v-205h45l21 88l20 -51l18 12l13 -41l86 12l84 -16l57 21l64 -25l36 16l113 -8
v137l33 -145l45 25l45 -25h45v39l-14 61l-25 -59l23 74l-13 45l-43 -80l41 94l-12 51l12 -47l31 72v57zM332 195v-1.99902v-52c-4 8.66699 -6 17.667 -6 27c0 7.33301 2 15.666 6 24.999c0 21.333 -0.166992 39 -0.5 53s-0.833008 29 -1.5 45c0 30.667 2 62.667 6 96
c5.33301 33.333 8 60.666 8 81.999c0 -15.333 0.666992 -39.333 2 -72s2 -57.667 2 -75c0 -53.333 -5.33301 -95.666 -16 -126.999zM10 791.001l-6 -197l12 -90v203z" />
    <glyph glyph-name="M" unicode="M" horiz-adv-x="1264" 
d="M8 1026l8 -113l-8 -92v-102l-8 -125l33 317l-25 320v-205zM842 535l8 -78l-8 -56v-198l20 272l-20 193v-133zM1202 1231v100l-20 -180l16 -111zM1176 1159l4 -35l2 27l-4 35zM39 963l-6 -52l6 -67l4 57zM1176 1159l-23 193l25 -166l24 350v102h-55l-14 -16l-50 4l-22 12
l-25 -8h-26l-33 8l-10 -73l-21 53l-33 -25l-14 37h-53l-39 8h-55l-9 -49l5 -278l-21 180l-102 -643h-2h-2h-5h-2h-2h-2l4 -84l-8 84l-8 -176l2 176h-2h-2h-2h-2h-4h-2l-62 395l-14 -164l-2 262l-45 297l-43 -16l-14 16h-29l-37 -16l-16 -29l-33 45l-25 -12l-47 -4l-12 16
h-57l-29 -28l-29 16l-35 -67l-20 79h-29v-204l31 -471l27 256l-23 -318l41 -598l-45 541l-31 -430v-410h23l6 80l29 -72l32 -8l25 12h22l21 -12h24l37 -4l9 70l22 -66h23l14 4l24 21l29 -25h23v195l-35 399l35 -268v717l63 -457l15 61l16 -166l-2 -90l53 -391h31l12 57
l8 -57h31l6 33l14 -33h31l8 100l13 -100h10l20 133l9 203l12 -70v107l18 24l21 134l8 399l12 -266l62 397v-264l24 -289l25 346l-23 -377l19 -241l-21 206l-24 -376v-66h45l24 57l21 -57h45l27 16l18 -16h22l21 57l27 -41l28 125l15 -141l16 21h23l28 -21v307l-24 78l12 121
l12 106v308l-22 200l-19 -161zM346 1532c-1.33301 -1.33301 -4.66602 -2.00195 -9.99902 -2.00195c0 -6.66699 -2.16699 -14 -6.5 -22s-6.83301 -14.333 -7.5 -19c9.33301 0 14 -3.33301 14 -10c0 -4.66699 -1 -11.5 -3 -20.5s-3 -14.5 -3 -16.5l-11 -10
c-6.66699 0 -10 2 -10 6c0 -0.666992 1 2 3 8s3 12 3 18c-0.666992 3.33301 -2.83398 8.83301 -6.50098 16.5s-5.5 15.834 -5.5 24.501c4.66699 29.333 13 45 25 47c1.33301 -0.666992 4.5 -1 9.5 -1s8.5 -1 10.5 -3c0 -3.33301 -0.166992 -6.16602 -0.5 -8.49902
s-0.833008 -4.83301 -1.5 -7.5zM866 511.998l-4 -37l4 -29l2 35z" />
    <glyph glyph-name="N" unicode="N" horiz-adv-x="985" 
d="M0 616l6 68l-6 35v-103zM14 766l-8 -82l6 -37l6 84zM938 1536l-14 61l-9 41h-67l-33 -16l-20 -57l-15 73h-45l-8 -8h-22l-37 8h-90v-241l10 -70l-10 -27v-434l-117 387l-6 -55l-23 152l-88 288h-65l-15 -125l-14 121l-35 4l-22 -8l-21 8l-25 -20l-18 20h-23l-43 -4l9 -88
l-29 92h-43l2 -467l27 265l-4 -287l34 147l-51 -313l33 100l-41 -159l14 -158l13 125l-9 -160l21 -229l-27 145l-12 -233v-308l6 -73l17 -29h22l18 12l31 13v-29l41 4l25 16l20 -16h68l33 53l12 -37l12 80l12 -92l43 -4v289l-10 39l10 57v49l-10 56l10 41v241l97 -289
l-23 197l53 -295l64 -192l27 -23l4 -74l16 -47l-20 -35l75 -10l-16 49l29 -24l28 -13l21 -16h20l19 12l22 -12l19 16l22 -16l31 6v25l24 43l9 -74h39l18 102v205l-10 129l10 74v817l-14 -493zM723 1522c-2 -6 -7.33301 -8.99902 -16 -8.99902c-12 0 -21 3 -27 9
c-2 2.66699 -3 5.66699 -3 9s-1 5.66602 -3 6.99902c0 0.666992 3 3.66699 9 9s9 9.33301 9 12l-26 -9v-16h-9l-20 -8c0 31.333 1.33301 48.333 4 51c4 2.66699 9.33301 4 16 4c8 0 21 -3.33301 39 -10c22 0 33 -8.33301 33 -25c0 -12 -2 -20 -6 -24z" />
    <glyph glyph-name="O" unicode="O" 
d="M926 754l2 30l-2 45l-2 -32zM942 961l-14 -177l14 -249v426zM16 690l-2 -24l4 -50l2 27zM942 1313v71l-63 64l-7 -125l-24 158l-47 47l-23 -15l-16 -8l-8 70l-64 63h-26l-31 -28l-25 28h-26l-54 -4v-88l-28 92l-41 -16l-15 16h-26l-39 -16l-17 16h-108l-16 -16l-13 -147
l-4 114l-31 -14l-47 -47l-6 -62l-16 23l-27 -8l-47 -49l-18 -113l-13 82l-16 -17v-241l16 -80l-16 -33l16 -340l23 187l-19 -234l13 -276l-15 249l-18 -223v-141l14 -16l25 -7l6 -24l29 -33l14 74l16 -105l15 -16l43 -12l-15 -19l17 -16l22 -2l11 49l10 -94l31 -31h28l33 33
l23 -33h28l45 16l21 41l18 -57h29l49 4l16 16l21 -20h29l26 29l41 -25l17 16l28 -20l31 31l20 65v-24l27 6l63 63l23 97l8 -66l64 64l16 86v71l-16 361l-19 -242l17 285l-17 381l19 -349l16 273l-6 53v72zM565 823l-6 -133l14 -266l-16 229l-14 -221v-125h-27l-8 -94l-6 84
l-2 -23l-19 33h-10l-4 -41l-12 41l-9 -69l-10 69h-37l-14 174l-18 -102v63l12 115l-4 49l6 -37l18 179l-16 172l16 -46v62l-12 35v63l12 92v189h19l6 49l12 -49h27l10 106l8 -106h8l19 24v-24h8l4 12l25 12l16 -24l-33 -76l39 -365l11 170l-11 -190l21 -317zM750 258
c0 -10.667 -3 -17.3301 -9 -19.9971v-17c-5.33301 0 -8 -1.33301 -8 -4c14 105.333 21 218.666 21 339.999c-2.66699 25.333 -4.66699 61.833 -6 109.5s-3.66602 83.5 -6.99902 107.5c-6.66699 68.667 -10 109.667 -10 123c0 26.667 3.33301 57.334 10 92.001
c3.33301 16 5.83301 33 7.5 51s2.66699 34.333 3 49s0.666016 32.167 0.999023 52.5s0.833008 39.166 1.5 56.499h8c-2 -56 -3.16699 -107.833 -3.5 -155.5s-0.5 -104.5 -0.5 -170.5s-0.333008 -131.833 -1 -197.5s-1.66699 -117.834 -3 -156.501
c1.33301 -5.33301 2.16602 -9.5 2.49902 -12.5s0.833008 -6.16699 1.5 -9.5c0.666992 -2 1.83398 -6 3.50098 -12s3.16699 -9.66699 4.5 -11c0 -96.667 -5.33301 -168.334 -16 -215.001zM399 559.004l-10 -55l10 -72v127zM567 874.004l-2 -28v-23l2 31v20zM381 569.004
l-2 -12l6 -76l4 23zM543 936.004l14 -205l8 115l-22 280v-190zM0 535.004l14 131l-14 223v-354zM553 690.004l4 -37l2 37l-2 41zM543 559.004l10 131l-10 121v-252z" />
    <glyph glyph-name="P" unicode="P" horiz-adv-x="922" 
d="M12 1501l-8 -102l6 -25l4 105zM0 0l14 606l-14 312v-918zM0 1325l4 74l-4 26v-100zM16 682l-2 -76l9 -131v74zM387 1116l-2 -12l2 -21l2 11zM557 1114l-2 4l-2 -22l2 -17l8 -2zM397 1141l-8 -47l8 -101v148zM551 1106l-2 -25l2 -2l2 17zM870 1440l-12 -25v23l-33 6
l-22 55l-15 -2l-20 31l-33 28l-14 -4l-21 35l-49 43h-41l-18 -33l-37 13l-25 28l-110 -8l-12 -24h-41l8 24h-90l-80 -4l-8 -53l-17 -4v57l-100 -4l-39 8h-41l12 -129l6 101l-4 -123l21 -248l-25 143l-10 -254l16 -438l11 365l-4 -498l16 -420l-16 346l-5 -471l56 -4h100
l27 16l22 -16h25l39 4l37 -4l8 113l16 -113h49v143l-10 39l10 33v143l-10 35l10 35v109l-18 34l29 21l24 -21h68l14 13l21 -13h32l39 4l12 58l5 -53l12 -9h35l108 103l27 88l6 -60l47 46l12 30l19 -2l31 29v110l-21 41l12 37l9 35v111l-9 41l9 32v185zM555 1079h-4l-8 -114
v-58l12 -35l-20 5h-27l-10 -127l-9 127h-28l-8 -29l-9 29h-28v-25l-19 25v59l-10 147l-12 -65l10 86l-10 153l12 -141l10 82v117l-24 31l24 12l19 -15h45l8 48l10 -48h19v31l18 -31h27v-145l10 -59l14 180l-12 -193l2 -12l18 -39l-12 2l23 -137zM543 1141l8 -35v18z
M543 1024l6 57h-6v-57zM555 1118v8l-2 13l-2 -15z" />
    <glyph glyph-name="Q" unicode="Q" 
d="M707 1638l14 -14l18 -127l17 57l10 25l29 -29l6 -34l22 6l17 -15l12 -90l16 60l15 -15l14 -22l8 -213l21 192l16 -16l-10 -78v-63l10 -54v-65l-14 -99l14 -32v-131l-10 -129h10v-66l-10 -76l-19 -43l29 -78v-131l-31 -28l-20 100v-121l-10 -10l-19 6l-2 -26l-10 -11
l-12 33l-9 -51l-51 -51h62l14 -82l6 82h31l8 -37l12 37h21l-6 -17l16 4v-49l-10 -16l10 -8v-13l-18 -20v-12l18 -7v-61l-41 33l-20 -25l-68 -8h-43l-39 61l-12 -57l-74 37l-47 -41h-43l-47 29l-55 -29l-29 61l-41 -61h-129l-16 16l-9 105l-22 -74l-33 31v51h-33v33l-30 -21
l-48 47l-14 148l-18 -117l-31 33v70l45 880l-45 -737v283l16 -54l-16 195v213l49 -740l-49 881v141l16 17h21l10 31l33 32l24 -34l13 38l10 43l16 17l19 2l12 29l33 32l12 -41l19 72l16 16h57l49 -12l11 -45l24 57h58l28 -32l27 24l29 8l20 -12l37 12l41 -12l14 -41l29 53
h29zM563 307v64l41 -246l-43 328l8 84v63l-6 90v66l19 438l-19 -311v192l39 -244l-39 373v64l6 47l-16 16h-21l-14 74l-16 -74h-10l-17 21l-14 -13l-10 47l-11 -55h-41l-39 -721l39 594v-192l-10 -60l10 -69v-64l-32 375l32 -504v-127l-8 -76l8 -53v-63l-12 -52l-8 -26
l27 18l24 -4h10l6 -104l15 104l12 -33l8 33h11l16 -41l6 31l8 10h10l5 -37l16 37h10z" />
    <glyph glyph-name="R" unicode="R" horiz-adv-x="971" 
d="M907 1419l-20 -84l-10 23l-3 76l-28 32l-8 -57l-9 70l-41 43l-16 14l-33 25l2 -62l-20 80l-16 16l-17 15l-4 -15l-31 43h-41h-41l-45 -8l-37 8h-38h-41h-41l-68 -12l-14 12h-41h-41l-29 -8l-53 8h-41l-27 -4l-55 4v-102l18 -616l37 673l-35 -762l19 -690l-21 647
l-18 -378v-103v-102v-103v-102h25l26 20l21 -20h24h23h24l25 8l8 29l39 -37h25h24h23h43l14 41l14 -41h25v41v43v41l-10 33l10 51v41v41l-14 41l14 43v41v43l-10 41l10 41v43v41v41h10h10h11h10l29 45l12 -45h-10h10h10l14 24l-2 80l19 -104h10h10l33 8l-12 -8v-41v-41
l8 -47l-8 -37v-41v-43v-41v-41v-43l16 45l-16 -127v-43v-41v-41v-43v-41h22l27 137l-4 -133l35 21l12 -17h37l29 17l24 -13l31 -12l4 12l29 25l36 -37h25h23l24 20l23 -20v41v43l-11 37l11 45v43v41v41l-19 41l4 35l15 49v43v41v41v43v41v41l-13 10l-12 10l-12 10l-4 -53v45
l-33 39l-12 8l-13 10l-12 11l-12 10l4 -57l-21 26l-20 62l-12 10l-15 10l-12 10l12 9l15 8l12 10l12 8l12 8l13 11l12 8v35l25 -17l-13 41l13 8l36 -22l13 10l12 8l12 9l13 10v26v27v27v28v27l-15 24l15 29v29v26l-15 17l15 37v26v29v27v26v27zM547 1219v-23l12 -74l-12 29
v-23v-22v-23v-22v-23v-22v-23l24 -37l-36 -4l-9 19h-10h-10l-14 -15l-7 15v-39l-20 39h-10h-11l-14 -82l-16 59l-11 23h-10h-10v22v23v22l-18 -30l18 75v23v22l-23 82l23 -36v22v23v22l-27 51l27 -6v23v22h10l27 21l-6 -21h10h10h10v25l21 -25h10h10l9 62l16 -41l6 -21h10
h11h10v-22v-23v-22l28 55zM0 1229v-103v-102v-102v-103v-102v-103l14 263l-14 454v-102zM18 920l-4 -43l4 -89l2 43z" />
    <glyph glyph-name="S" unicode="S" horiz-adv-x="979" 
d="M889 1151v-23h-45l-23 23l-12 59l-12 -71l-43 -11h-45l-9 19l-36 -19l-11 31l-55 -29l-8 121l-19 -123h-22v82l12 11v69l-12 15v41l-12 16l-7 -16h-18l-10 20h-10l-19 -10l-8 10h-19l-8 -20h-37v-21l-39 -178l39 135v-22l-32 -148v-108l34 192v-129l-41 219l41 -262v-23
h17l10 -141l23 141h63l27 -18l4 18l47 -2l22 -12l11 12h30l19 -16l14 -84l19 53l34 -32l11 -29l24 -2l17 -17l22 -157l12 125l35 -31l17 -16l16 -70l4 37l31 -15v-32l-29 -375l29 311v-319l-25 389l25 -453v-30l-14 -17l-21 25l-10 -54l-15 -14l-16 -4l-14 -14l-15 -27
l-14 -14h-20l-9 6l-2 37l-14 -74l-29 -43l-26 16l-4 -45l-15 -14l-51 2l2 23l-33 -25h-26l-60 6l-10 53l-12 -59h-29l-26 20l-17 -12l-39 -8h-55l-23 8h-28l-31 -8l-31 33l-14 88l-8 -66l-27 25l-33 31l-14 149l-2 -125l-31 25l-6 24l-16 17l-27 6l-16 84l-4 -58l-27 21v55
h12v17l-2 6v55l2 -6v55l-12 35v74h25l24 -10l27 10l26 -33l23 33h51l47 -2l10 -58l19 60h24l21 -17l35 11l18 -27l27 33h24v-15l-12 -75l12 20v-53l-71 -309l69 252l2 -37h29l10 -113l9 113h26l12 -39l7 39h18l6 -76l12 76h19v18l12 225l-12 -184v168l45 -199l-45 277v20
l-23 9l-16 55l-8 -53l-21 -11h-32l-17 13l-24 -9l-19 19l-8 -23h-70l-14 19l-18 -19l-19 17l-8 80l-12 -58l-50 47l5 25l-27 4l-25 78l-14 -45l-43 43l-14 47l-21 -14l-51 53v88l4 6v29l-4 53v176l31 -260l-31 317v60l14 14l27 2l4 29l29 29l16 2l16 -127l13 170l59 59
l12 -74l17 103l31 30h26l19 -10l36 10h27l31 -10l29 -119l-9 119l60 10h26l31 -18l25 18l30 2l33 -43l14 -32l31 73h29l14 -14l17 -147l10 88l33 6l28 -29l21 -92l10 65l59 -55l6 -63l23 37l14 -15v-35l-18 -165l18 129v-109l-22 125l22 -162v-37l-10 -24z" />
    <glyph glyph-name="T" unicode="T" horiz-adv-x="850" 
d="M0 1489v-21v-18v-20l12 22l-12 57v-20zM760 1630h-51l-7 -65l-36 20h-17l-20 49l-99 -4l-98 6l-16 -77l-8 73l-154 -2l-96 4l-17 -28l-30 -17l-21 49l-90 -8v-20v-21v-18v-21l16 -90v2l19 101l-15 -93l29 58l-31 -86l19 -105l-21 97v-2l-16 -103v-20h14h13l12 -6l14 6h15
h12l14 10l12 -10h15h12l2 14l23 -6l16 -8h14h13h14v-82v-82l4 -86l-4 -78v-82l29 -377l22 277l-20 -307l16 -205l-18 170l-8 -125l12 -131l-15 90l-18 -291l45 2l-4 53l31 -55h22h25h24l25 12l25 13l8 -19l37 -6h24l47 2l25 45l8 -35l14 -12h25v82l-4 90l4 74v82l-16 266
l-9 -238l7 254l-17 283l19 -221l2 78l-13 176l15 -109l12 410l-6 88l18 -6h15h26l6 12l17 4l6 39l12 -55h12h15h12h14l13 10l14 -10h14h13l2 16l12 4v21v18v21l-8 24l-4 -20l2 24l-6 23l8 -6l8 55v20v21v20l-8 23l8 16v21v20h-51zM518 285
c-0.666992 4.66699 -1.66895 10.499 -3.00195 17.499s-3.66602 10.5 -6.99902 10.5v-100c0 -0.666992 0.666992 -2.66699 2 -6s2 -6 2 -8c0 -30 -1.33301 -53.333 -4 -70c-0.666992 -6 -1.16699 -11.667 -1.5 -17s-1.16602 -11.333 -2.49902 -18
c1.33301 -2.66699 2 -6 2 -10v-41l-2 10v41c-8 44 -12 76 -12 96c0.666992 4.66699 6 21.334 16 50.001c-0.666992 2 -1.16699 4.83301 -1.5 8.5l-1 11c-0.333008 3.66699 -0.833008 6.5 -1.5 8.5c-1.33301 36 -2 87.333 -2 154l6 6v-35c6.66699 -30.667 10 -66.667 10 -108
zM595.998 491.999v81l-12 154l-2 -72zM-0.00195312 1368l8 41l-8 -20v-21zM214.998 327.999v-82v-107l12 187l-12 84v-82zM214.998 734.999l2 -106l-2 -56l16 -196l11 110zM15.998 1434l2 8v6l2 22l-4 -8v-4v2l-4 -8l2 -6l-6 -37l8 23v4v-2zM230.998 376.999l-4 -51l6 -35
l3 41zM245.998 491.999l-2 30l-2 -35l2 -30zM810.998 1450l-4 -18l4 -2v20zM583.998 726.999l2 74l-2 16l-2 -67zM577.998 609.999l2 -16l2 61l-2 17zM802.998 1413l4 19l-4 2l-2 -17zM595.998 816.999v82v82v82l-10 -262l10 -66v82z" />
    <glyph glyph-name="U" unicode="U" horiz-adv-x="1006" 
d="M958 858l-4 86l4 88v172l-16 -270l16 -162v86zM561 1305l6 -107l-6 -59v-84l12 168l-12 166v-84zM397 889l-6 104l6 62v250l-20 -310l20 -272v166zM0 944l16 117l-16 231v-348zM575 1270l-2 -47l2 -35l3 49zM20 1090l-4 -29l4 -49l3 37zM940 879l2 55l-2 33l-2 -56z
M911 1622l-28 16l-23 -75l-16 47l-35 28h-49l-25 -16l-26 16h-25l-22 -16h-25l-27 16h-49v-84l14 -284l11 143l-8 -176l16 -313l-19 264l-14 -299v-250l8 -57l4 -125l-12 -68v-82h-10l-10 -74l-17 33l-18 21h-19l-18 20h-41l-6 -41l-14 41h-11v82l-51 -348l51 516l-24 391
l-41 -581l39 630l-25 392l27 -347l24 431l2 133l-16 16l-10 16h-25l-24 -24l-25 24h-27l-26 -20l-29 -25v45h-67l-21 -12h-25l-30 12l-17 -4h-24l-33 4v-174l20 -374l13 92l-10 -133l18 -351l-21 314l-20 -240v-174l12 -119v-88l-12 -53v-86l35 -33l26 2l7 -33l10 7l24 -37
l33 -33l10 33l21 -45l20 -35l17 -15l35 -26l4 133l12 -154l16 -16h138l8 33l24 -33h58l30 16l25 -16l45 4l12 53l29 -57h84l14 16l15 205l16 -174l43 47l12 35l17 16v33l30 -20l29 30l16 183l15 -152l28 33v346l-18 281l-16 -293l14 325l-18 279l20 -223l18 411l-6 74l6 100
v86h-24zM217 1493c-2.66699 0 -4.66699 -0.331055 -6 -0.998047s-3 -1.33398 -5 -2.00098l-9 -3c-3.33301 0 -7 2 -11 6h9v41c1.33301 0 3.33301 0.666992 6 2s4.66699 2 6 2v12c2.66699 0 5.66699 -0.666992 9 -2s6.33301 -2 9 -2c0 -32.667 -2.66699 -50.334 -8 -53.001z
M373 948.002l4 47l-4 47l-2 -45z" />
    <glyph glyph-name="V" unicode="V" horiz-adv-x="1067" 
d="M942 1638l-27 -67l-4 63l-45 4l-18 -16h-25l-30 16h-25l-33 -32l-18 32l-23 -28l-28 -17l-23 45h-25l-12 -155l-8 -568l-4 412l-70 -932h-2h-2h-2h-2h-2h-2h-2h-2h-2h-2h-2h-2h-2h-2h-2h-2l-35 467l-13 -401v555l-47 622h-24l-27 -12l-22 12h-25l-20 -104l-9 92l-47 12
h-49l-29 -16l-20 16h-25l-28 -53l-23 53h-49l14 -102l31 -123l14 -102l-4 -82l123 -922l-28 613l57 -818l14 -102l41 20l31 -20l82 4v96l24 -71l23 -29l65 12l23 -12l76 12l20 64l10 -76l58 4h57v162l31 -166h35l41 307l65 957l-37 -752l150 1126h-74z" />
    <glyph glyph-name="W" unicode="W" horiz-adv-x="1389" 
d="M119 922l20 -107l13 -98l34 -205l-39 332l-79 385zM758 1341v-135l28 -112zM717 356v-24l6 -23l-2 25zM758 1174v32l-6 25v-31zM1202 1104l-8 -70l10 43l6 66zM1202 1104l31 252l-23 -213l95 393l18 102h-49l-21 -24l-26 24h-25l-16 -12l-25 -24l-28 36h-25l-23 -20h-22
l-27 20h-22l-19 -79l-24 71l-29 8l-14 -98l-6 -422l-9 322l-82 -594h-2h-2h-2h-2h-2h-2h-2h-2l-18 147l-39 181l2 -238l-8 264l-47 217l47 -186l-7 209l-22 198h-35l-4 -49l-14 49h-8l-3 -28l-16 28h-18l-11 -229l-8 229h-26l-23 -198l8 -66l-6 -49l-18 -33l-52 -446h-2h-2
h-2h-2h-2h-2h-2h-2h-2h-2l-59 446l4 -239l-6 49l-19 338l-20 149l-2 29h-23l-18 -64l-27 64l-29 20h-22l-2 -12l-43 12h-23l-16 -28l-25 -39l4 63l-53 4h-22l-7 -16h-22l-39 16l35 -204l106 -539l-39 324l48 -373l122 -617l-114 562l61 -484l51 -307l29 33l8 -33h53l15 29
h18l23 -29h53l25 25l16 63l14 -88h37l19 170v111l-13 118l27 -100l12 127l-10 244l20 -158l19 170h2h2h2h2h2h4h2h2h2h2h2h3h2h2h2h2l18 -170l29 -156l-4 197l8 -219l29 -160l-27 135l6 -180l14 -129h17l20 125l17 -125h37l28 20l25 -20h18l17 20l24 25l15 -45h18l8 33
l27 -33h18l19 102l8 131l28 74l54 307l53 420l-135 -534zM893 713c0 -104 1.33301 -182.667 4 -236c0 -35.333 2.66699 -61.333 8 -78c-8 13.333 -14 25.666 -18 36.999c-2.66699 33.333 -4 58.666 -4 75.999c0 23.333 1.5 54.5 4.5 93.5s4.83301 74.833 5.5 107.5
c2.66699 48.667 4 123 4 223l12 25c0 -27.333 -2.33301 -68.166 -7 -122.499s-7.66699 -96.166 -9 -125.499zM1214 1024l7 59l28 146l19 102l-64 -254l-26 -258zM721 213l-4 119l-19 94zM141 895l6 -51l11 -53l-8 55z" />
    <glyph glyph-name="X" unicode="X" horiz-adv-x="1143" 
d="M965 317l-9 -84l-32 189l-21 53l-18 -6l-23 113l-20 53l-19 22l-8 -122l-35 258l-20 53l114 297l39 233v-135l156 397h-51l-49 -4l-17 -80l-8 84h-49l-27 -24l-41 16l-8 -53l-24 61l-43 -4l-13 -75l-18 79h-51l-15 -55l-8 -186l-8 129l-74 -254l-51 -586l35 531l-8 -29
h-2h-2h-2h-3h-2h-2h-2h-2l-55 225l-8 -158l-4 215l-43 168h-25l-16 -104l-17 100l-41 4l-20 -20l-16 -37l-39 57h-50l-16 -16l-24 -12l-33 28h-101l97 -247l22 -21l6 78l31 -207l76 -197l35 -63l-9 197l33 -283l19 -49l-41 -107l-62 -377l21 273l-244 -635h49l37 20l14 -20
l54 12l8 33l33 -41h24l17 121l12 -125h51l45 4l8 41l21 -45h24l17 53l14 176l2 -120l47 161l4 242l13 -188l30 108h2h2h2h2h3h2h2h2l100 -297l-14 201l32 -256l29 -80h49l15 29l28 -25l33 -4l27 20l22 -20h25l18 37l33 -37l47 4l-8 105l35 -109h75z" />
    <glyph glyph-name="Y" unicode="Y" horiz-adv-x="1104" 
d="M725 569l-14 -231l14 -162v393zM346 479l-2 -41v-8l2 43v6zM328 176l16 262l-16 131v-393zM709 311l2 27v16l-2 -26v-17zM1026 1638l-18 -20l-31 20h-25l-22 -16l-27 -33v41l-51 8h-98l8 -28l-21 -33l-28 33h-25l-6 -37l-39 -6l-18 -109l-4 -323l-7 251l-51 -323h-2h-2
h-2h-2h-2h-2h-2h-2h-2h-2l-101 395l13 -280l-29 352l-29 108h-24l-31 -12l-20 -29l-23 41h-51l-39 -4l-8 -200l-27 204h-74l-18 -49l-23 33l-34 16h-25l102 -292l45 -95l21 -57l-4 -25l61 -174l-24 357l43 -400l43 -133l41 -117v-45l18 -178l4 94l-4 -100l39 -393l-41 350
l-16 -342v-88h24l23 33l28 -33h50l30 29l17 -17l26 -12h52l43 41l8 35l16 -51l31 -25h49v88l-16 223l-13 -219l13 236l-17 229l19 -203l14 303v45l82 234l43 432l-16 -346l34 90l21 57l12 68l21 59l28 50l21 59l28 172l13 -55l39 116h-25zM535 653
c0 56.667 -4.33398 115.999 -13.001 177.999c-2.66699 28.667 -4 72.667 -4 132c-4 54.667 -6 110.334 -6 167.001l14 -16c-1.33301 -14.667 -2 -36.667 -2 -66s-0.666992 -51.666 -2 -66.999c-0.666992 -2.66699 -1.16699 -5.33398 -1.5 -8.00098s-1.16602 -6 -2.49902 -10
c11.333 -148.667 17 -252 17 -310z" />
    <glyph glyph-name="Z" unicode="Z" horiz-adv-x="1044" 
d="M143 1638h117l57 -8l13 -217l4 225h272l68 -12l20 -100l27 112h39l43 -53l4 -55l27 18l43 -53l22 -65l14 -52l9 64l28 -37l23 -64l6 27l14 -16l-32 -66l-62 -74l-33 -65l-8 -57l-33 -66l-75 -129l8 82l-68 -152v-61l-102 -197l-72 -131l4 96l-33 -159l-34 -66h28l31 -166
v154l53 12h86l27 -20l31 -45v53l55 12l55 -12l12 -53l17 65h57v-39l-35 -231l35 192v-153l-26 178l26 -215v-39h-86l-94 8l-12 92l-23 -100h-86l-47 29l-29 -21l-53 -8h-86l-84 8l-8 49l-37 -57h-43l-41 53l-4 242l-22 -205l-54 72l-8 112l-20 -77l-68 90l203 393l2 -82
l65 211l136 262l69 84l12 -94l21 205l33 65h-248l-43 41l-4 191l-27 -232h-76v39l21 232l-21 -193v115l41 -140l-41 179v18l21 -213l-21 252v18z" />
    <glyph glyph-name="grave" unicode="`" horiz-adv-x="311" 
d="M20 1376l9 -16l8 -19l8 -18l8 -18l4 75l13 -110l8 -19l10 -4l8 -18l6 -33l9 -16l8 -19l8 64l8 -101l8 -18l9 -16l6 4l6 6l6 6l6 6l6 6l6 6l7 6l6 5l6 6l4 6l6 6l6 6l6 6l7 6l6 7l6 4l-4 10l-6 8l-7 10l-4 9l-8 -21l-2 39l-6 10l-4 8l-6 11l-4 8l-4 -68l-9 86l-4 8l-6 11
l-4 8l-6 10h6h6h6l11 47l2 -47h6h6h6h6h6h6l5 121l6 -121h6h6h6v17v16v16v19v16v17v16v16v58l-8 -60v80v16l8 31v17v16v16h-14l-21 -8l-10 -106v108l-29 6h-16l-6 -6h-17l-22 6h-14l-21 -18l-20 12l-4 6l-17 -10l-14 10h-15v-12v-14v-15l21 -206l-21 180v-15v-12v-14v-55
v-13v-14l17 139l-17 -168v-12v-14v-15z" />
    <glyph glyph-name="a" unicode="a" horiz-adv-x="719" 
d="M131 1159c-1.33301 -2.66699 -7.33105 -11.334 -17.998 -26.001c-2.66699 -6.66699 -4.83398 -11.5 -6.50098 -14.5s-3.83398 -7.83301 -6.50098 -14.5v-2c8.66699 10 13.667 18.667 15 26c0.666992 4 2.5 7.16699 5.5 9.5s5.83301 4.83301 8.5 7.5
c1.33301 2.66699 2 7.33398 2 14.001zM158.002 1384v23v-6v-6v-11zM150.002 1321l3.99902 10.499c2.66699 7 4 11.833 4 14.5v24c-16.667 -34 -25 -73 -25 -117v-24v-12l2 -3c3.33301 7.33301 6.33301 23 9 47s5.33398 40 8.00098 48
c0 2.66699 -0.166992 4.83398 -0.5 6.50098s-0.833008 3.5 -1.5 5.5zM524.001 1628c-20 0 -33.667 -2.66406 -41 -7.99707l-24 8l-13 -16l-18 10l-25 -8l-4 12l-73 2l-11 -24l-16 20l-39 4c-9.33301 -14.667 -28.333 -24.334 -57 -29.001l-8 29h-23l-90 -575l6 6
c2.66699 16.667 6.66699 31.667 12 45l-2 14c0 12.667 5.16699 32.167 15.5 58.5s15.5 47.166 15.5 62.499c0 16.667 2.66699 43.5 8 80.5s8.66602 64.833 9.99902 83.5l11 4v2l4 -2l-2 -33c0 -24.667 -2.33301 -51.334 -7 -80.001l-14 -84l2 -20
c0 -23.333 -6 -44.666 -18 -63.999v-16c-2.66699 0 -4 -2.66699 -4 -8l-17 -2l-2 2c-3.33301 0 -7.33301 -16.333 -12 -49h-6l-76 -488l27 2c2.66699 7.33301 9.33398 17.666 20.001 30.999l10 -18l19 8l2 -21l31 -2l14 6c2 0 5.33301 -1 10 -3s6.66699 -3 6 -3h17l16 19
l12 -13l17 7l8 -15c8 1.33301 21 2 39 2l22 209h19l8 12c8 0 13.333 2.33301 16 7l11 -19h14l4 17l8 -17h9l10 14l6 -4l10 11l8 -11l4 -10h15l22 -209l21 2l14 13l12 -15l15 10l16 -10l19 6l12 13l8 -21l23 2l16 25l16 -4l6 -15l23 -6l18 10l15 -10h14zM213.001 631.002
c-6.66699 -6.66699 -15 -10.001 -25 -10.001c-6.66699 0 -10 0.666992 -10 2c3.33301 2 6 4.66699 8 8v2h-4c0 2.66699 -0.166992 4.83398 -0.5 6.50098s-0.833008 3.5 -1.5 5.5c0 2.66699 0.666992 4 2 4c14 0 24.333 -3.33301 31 -10v-8zM252.001 1579v-24.999h-2h-12
c-4.66699 0 -7 3 -7 9c0.666992 2.66699 1.16699 5.16699 1.5 7.5s0.5 5.16602 0.5 8.49902c0 4 2.66699 7 8 9s8.33301 5 9 9l6 23c0 -14 -1.33301 -24.333 -4 -31v-10zM397.001 975.002c-5.33301 -5.33301 -7.99902 -11.666 -7.99902 -18.999l-12 11l-2 8h-15
c-6.66699 -6.66699 -10 -13.667 -10 -21l-10 -2l-6 17l-10 6h-7c-6.66699 -6.66699 -11.334 -16.334 -14.001 -29.001l-8 29h-8l49 442h22l48 -442h-9zM391.002 1585v8.00098h8v9l-20 2h14h4c10 0 15 -3 15 -9c0 -2.66699 -2.5 -5.33398 -7.5 -8.00098s-8.83301 -4 -11.5 -4
c0 0.666992 -0.166992 1.16699 -0.5 1.5s-0.833008 0.5 -1.5 0.5zM506.002 618.003h-2c0.666992 -0.666992 1.16699 -1.5 1.5 -2.5s0.5 -2.16699 0.5 -3.5c-4 -4 -8.66699 -6 -14 -6c-4.66699 5.33301 -7 12.333 -7 21c0 4 1.33301 8.66699 4 14l7 2
c14.667 -7.33301 22 -17 22 -29h-2c-0.666992 0.666992 -2 1.5 -4 2.5s-4 1.5 -6 1.5zM633.002 727.003c0 18 -3.16699 44.667 -9.5 80s-9.5 59.333 -9.5 72c0 14.667 -5.16699 35 -15.5 61s-15.833 45 -16.5 57c-0.666992 6 -4.33398 31.333 -11.001 76
c-2 15.333 -3 38 -3 68s-1 52.333 -3 67c0 4.66699 -1.33301 11.667 -4 21s-4 16 -4 20v29c4 -4 6 -13.667 6 -29c0 -8 2.33301 -41.833 7 -101.5s7.33398 -91.167 8.00098 -94.5c36.667 -113.333 55 -218 55 -314v-12zM78.002 1044l4 9
c-2.66699 -2.66699 -4 -5.66699 -4 -9z" />
    <glyph glyph-name="b" unicode="b" horiz-adv-x="641" 
d="M618 1006l-20 -7l-2 11l-14 8l-2 18l-23 -2l-10 6l4 17l-19 14l-16 -2l-2 18l-31 21l-16 -12l-2 26l33 25l2 20l14 -10l2 21l12 6l17 24l2 -26l33 22l-9 15l9 8l16 6v37l-8 8v16l8 27v35l-8 20l8 15v88l-16 2l6 24l-17 19l-12 -6l-6 22l-8 10l-13 -4l-6 21l-8 -58l-8 76
l-10 8l-13 -4l-8 8l-6 23l-10 -6l-21 10l-14 14l-49 -8l-29 -22l-6 30l-29 -12l-26 12h-45l-23 -16l-45 16h-29l-32 -12l-23 12l-37 -20l-18 20l-25 -6l-4 -61v-66l4 -84l17 160l-13 -211l13 -213l-17 164l-4 -82v-199l2 -39l10 -55l9 -153l-15 67l-6 -153l10 -68l-10 -66
h55l48 25l10 -16l28 4l27 -13h29l26 7l29 12l29 -19l55 2l14 13l33 10l8 -25h29l16 9l23 2l12 34l8 -16l11 4l10 15l20 20l6 27l15 -2l16 6l-8 76l18 -56l15 4l10 11v12l16 -6l4 30v35l-12 13l12 22v53l-6 17l6 18v105zM537 1270c0.666992 2.66699 2.5 6.33301 5.5 11
s4.5 9.66699 4.5 15c6.66699 -1.33301 10 -7.33301 10 -18c-5.33301 -10 -11.333 -19 -18 -27c-1.33301 2.66699 -2 9 -2 19zM49 615.999l-2.00098 5c-1.33301 0 -2.33301 0.5 -3 1.5s-1.16699 2.16699 -1.5 3.5s-0.833008 2.33301 -1.5 3
c0.666992 -3.33301 1.16699 -6.5 1.5 -9.5s0.5 -6.83301 0.5 -11.5h-6v31c6.66699 0 11.334 -2.66699 14.001 -8l4 -8c0 -2.66699 -2 -5 -6 -7zM60.999 1559c-2 0 -4 2 -6 6v14l-2 8c2 -2.66699 3.33301 -5.5 4 -8.5s2 -4.83301 4 -5.5v-14zM364.999 871.999l-5 -26v-58
l-4 -8l-2 -6h-6l-12 -51l-4 41l-13 -12l-4 22h-8l-6 -10l-6 4l-6 6l-19 -18l4 18h-18v160l-4 16l-6 -84l-4 166l10 -82l4 27v29h6l17 14l-5 -14l13 22l10 -10l-2 -12h6l12 8l2 -8l11 10l4 12l8 -2l12 14v-22l4 -12h6v-117l5 -17l4 41l4 -82zM372.999 1212l-11 91l-2 -11v-88
h-6l-2 -12l-10 6l-4 -2l-10 8h-6l-5 -53l-8 45h-12l-2 8h-27l-6 -6l-12 10l6 11v221h6l6 12h6l7 -12l6 6v-2l14 -4l-4 8l18 -8h7l4 4l8 12l6 -8l8 -4l6 -4h6v-88l-2 -11l4 -38l15 61zM9.99902 1421l-4 -49l4 -51l4 49z" />
    <glyph glyph-name="c" unicode="c" horiz-adv-x="629" 
d="M6 1145l2 29l-2 18v-47zM250 954l4 29l-2 35l-4 -33zM592 1028l-37 -4v-27l-10 31h-45l-27 -6l-4 -33l-18 27l-17 4l-12 8h-14l-19 -22v20l-29 2v-31l2 -20l-2 -12v-129l2 -19l11 80l-11 -94l13 -146l-13 131l-2 -16h-6l-8 -37l-4 21l-8 16h-6l-9 -51l-2 47l-10 4h-6
l-10 -18l-2 18h-8l-11 -4l-2 4l-6 -16l-16 4l4 45l4 51v43l-4 55l-10 -77l8 108l-10 152l14 -119l2 51v84l-4 43l4 41v43l-4 41l-2 70l4 45l-2 18l12 -4h12l5 53l10 -53h6l2 12h6l10 -12l6 27l9 -27h6l4 6l10 -6h6l6 8v-22v-41l5 -15v-14l-5 -14v-56l7 -18l-7 -8v-43h17
l12 12l19 -12l22 6l10 24l9 -18l20 -12l16 6l15 -6l24 2l15 14l10 -10l16 -6l13 41l14 -41l16 4l-2 12v96l-6 11l6 22v33l-8 16l8 15v32l-10 13v12l-12 10l-13 -33l-8 52l-22 20l-17 -2l-6 21l-10 10h-12l-19 24l2 -45l-16 58l-21 18l-22 4l-10 8l-25 -2l-2 -32l-16 32h-17
l-22 -16l-4 10h-31l-8 6h-31l-14 -30l-13 20l-22 10h-33l-6 -20l-14 -6l-11 -11l-10 -4l-20 -20l-11 -25l-10 4l-20 -24l-4 -74l-9 68l-20 -21l-6 -71l-6 57l-19 -16v-189l4 -63l10 176l-8 -203l37 -279l-39 230l-4 -94v-140l8 -51l-8 -43l-2 -78l10 -4l2 -20l13 -10l10 32
l4 -39l18 -22l11 -8l12 65l10 -84l8 13l15 -33l41 -35l10 63l4 -75l12 -9h33l19 25l20 -18l12 -7h33l16 15l19 -15h16l27 7l12 16l17 -6l12 -17h16l13 11h14l29 30l14 76l8 -33l-12 -24l28 22l9 11l8 18l12 2l19 19l12 86l2 -68l6 25l8 6v73l-4 17v22l4 17v37l-6 16l6 18v56
l-4 16zM188 1563l0.000976562 -13h-6c0 4 -1 7.16699 -3 9.5s-4.33301 4.5 -7 6.5s-5.33398 4.33301 -8.00098 7c0 9.33301 2 14 6 14s8 -4 12 -12c4.66699 0 9.66699 2.66699 15 8c0 -9.33301 -3 -16 -9 -20zM223.001 676c-2 0 -3.5 0.5 -4.5 1.5s-1.5 1.83301 -1.5 2.5
c0 165.333 3.33301 289 10 371c0 -42 -0.166992 -78.667 -0.5 -110s-0.833008 -60 -1.5 -86s-1.16699 -51.833 -1.5 -77.5s-0.5 -59.5 -0.5 -101.5zM449.001 950c-4.66699 0 -7.83301 2.66699 -9.5 8l-3.5 11c11.333 -2.66699 17 -7 17 -13
c0 -1.33301 -1.33301 -3.33301 -4 -6zM362.002 817l-2 -12l2 -17v15v14zM10.002 1221l-2 -47l2 -29l2 49z" />
    <glyph glyph-name="d" unicode="d" horiz-adv-x="641" 
d="M14 1292l-6 -59l4 -49l4 76zM2 1174l6 59l-6 80v-139zM367 1155l-2 -35l2 -14l2 35zM592 1505l-2 -22l-8 30l-23 7l-10 24l-10 10l-11 -34l-12 36l-10 27l-14 -6l-9 25l-8 -7l-14 17h-15l-14 24l-20 2l-52 -10v-49l-10 37l-28 20h-37l-37 2l-21 -10l-43 -6l-4 -57l-8 71
h-49l-41 -43l16 37l-69 8v-22l-27 -10v-99l12 -215l13 113l-11 -145l9 -138v-123l-13 185l-10 -144v-264l6 -114l8 108l-4 -182l-4 74l-6 -87l31 7l33 -7l40 13v43l39 -47l25 -9h41l45 15l8 86l19 -101h26l29 15l29 -15l28 7l27 -7h29l10 11l6 30l14 -10l21 21l8 55l12 -10
v-21l21 17l8 16l18 12l2 27l13 -14l10 10l-6 53l22 -20l4 34v140l-4 59l-12 -84l10 115l-10 108l12 -73l4 61v94l-6 45l6 49l-6 41l6 52v94zM229 1178c-3.33301 0 -5.5 0.500977 -6.5 1.50098s-1.5 1.83301 -1.5 2.5c0 165.333 3.33301 288.666 10 369.999
c0 -82.667 -0.166992 -150 -0.5 -202s-0.833008 -109.333 -1.5 -172zM367 1106l-11 -154l4 -51l-4 -33l2 -47l-2 -35h-12l-6 -14l-6 6l-10 -22l2 22l-13 8l-8 -84l-4 80v-12l-14 16h-9v-14l-12 14h-12v82l-8 47l8 37v125l-6 35l6 49v84l-8 68l8 14v43l-4 70l-12 24l20 -2
l8 -10h21l14 66l2 -37l4 -13l6 -16h19v14l8 9l12 -23h6v-41l2 -53l-2 -31v-82l11 -90l10 123l-8 -137l16 -135zM573 1436h-4c0 14.667 -0.666992 26 -2 34l-8 3h12c0 -6 2.33301 -11 7 -15c0 -10.667 -1.66699 -18 -5 -22zM610 985.001l4 35l-4 31l-2 -35zM356 1036l9 84
l-9 41v-125z" />
    <glyph glyph-name="e" unicode="e" horiz-adv-x="475" 
d="M16 948l2 -35v13v32zM0 1034v-55l4 -55l12 24l-16 285v-199zM457 1593v25l-13 4l-16 8l-106 2l10 -12l-27 4l-20 -22l-4 18l-52 10h-28l-31 -6l-49 8l-8 -59l-13 59l-43 -2l-26 -6l-31 6v-264l18 -408l21 119l-21 -151l23 -158l-27 123l-14 -121l8 -59l-2 -62l-6 -78h16
l7 23l16 -10l4 -13l57 2l72 -6l31 15l26 -11l25 9l33 -9h26l66 4l-4 33l24 -37h29l16 4l13 9v24l-11 2l11 23v37l-15 16l15 8v62l-6 6l-13 -6l-6 14h-24l-13 -10l-12 10h-12l-23 -8l-2 8h-37l-12 -33l-14 33h-13l-20 -8l8 24l-8 19l-4 18l8 17l4 12v35l-4 16v17l4 16v84
l-2 29l16 -5l7 -8h10l10 13l10 -13h58l24 13l12 -13h11l10 13v24l-6 10l6 15v12l-12 12l12 13v49l-6 -4l6 28v13h-12l2 12h-21l-8 -8l-14 8l-6 -6l-13 -2l-12 8h-21l-4 -62l-8 62h-18v-19l-21 19h-10v63l-2 -6l2 31v12l-8 -10l8 35v37l-8 16l8 8v13h12l11 12l16 -12l4 10
l21 -10l12 26l2 -20l22 -6l19 10l6 -10h25l12 12l12 -12h25v49l-11 28l11 -2v13l-13 10l13 14v25l2 12zM57 1475c-1.33301 -4.66699 -2 -10.332 -2 -16.999v-186c-4 4 -6 8 -6 12c0.666992 13.333 1 31 1 53s0.5 44.5 1.5 67.5s2.16699 40.833 3.5 53.5v121l2 -8
c4 -14.667 6 -28.334 6 -41.001c0 -18.667 -2 -37 -6 -55zM416 1481c-2 0 -4.33105 -0.667969 -6.99805 -2.00098s-5.33398 -2 -8.00098 -2v-9h-6c-2.66699 4.66699 -4 12.334 -4 23.001c1.33301 2.66699 7.66602 4 18.999 4c1.33301 0 2 2 2 6h6
c0 -13.333 -0.666992 -20 -2 -20z" />
    <glyph glyph-name="f" unicode="f" horiz-adv-x="512" 
d="M254 1317v12v12v13v12v14v13v12l-14 -37l14 -63v12zM254 745v29v29l-14 31l14 -117v28zM240 834v2v-2zM8 1294l-2 -53v-67l10 104l-10 94zM254 889v29v28l-10 -74l10 -12v29zM238 1362l2 6l-2 10l-2 -6zM489 1638l-38 -4l-37 6l-2 -22l-21 22h-35l-34 -18l-11 -12l-24 24
l-70 4h-31l-43 2l-45 -10l-8 -45l-24 53l-54 2l-6 -135l14 -186l13 131l-10 -160l18 -246l-23 201l-12 -205l6 -67l-6 -66v-65l10 -72l-10 -61v-68v-39l14 -27l21 19l10 -19h33l8 15l19 -12l22 8l12 -11l21 11l10 -11h17l16 37l16 -26l13 -11h16v29l-12 29l12 29l-16 159
l-21 -164l19 183v4l-48 100l43 -53l-12 119l14 -123l7 -8l14 125v26h12l10 12l13 -12h24l23 19l6 67l4 -72l14 -14h23l6 12l19 -12h22v12l12 2v13l-10 18l10 6l-10 13v12l10 12v62l-14 8l14 16l-8 19l-16 8l-19 -2l-2 -23l-26 23l-58 2l-12 -80l-4 72l-18 8h-13l-24 -8
l12 20v37l-16 82l-35 -96l33 106l-23 119l25 -113l16 52h14l19 10l12 -10h29l12 20l16 -20l17 10l18 12l10 -22h29l25 10l4 45l16 -55h14v77l-10 4l10 23v53l-16 -63l16 90v24zM68 625h-5.00098c-5.33301 31.333 -8 79 -8 143c0 -44 4.33301 -85.667 13 -125v41l4 -55
c-0.666992 2.66699 -1.16699 5 -1.5 7s-1.16602 4.33301 -2.49902 7v-18zM239.999 836l4 36l-4 7l-2 -25zM237.999 854l-5 33l-2 4l5 -47l2 -2v12zM235.999 840l2 -19l2 15l-2 6zM19.999 1319l-4 -41l2 -33l5 45z" />
    <glyph glyph-name="g" unicode="g" horiz-adv-x="637" 
d="M260 1106l-10 33l10 49v41l-18 -105l18 -86v68zM612 1479l-22 20l-12 -22l-9 43l-22 20l-10 -16l-13 37l-22 20l-4 -22l-17 12l-14 -60l-10 111l-21 20h-33l-16 -16l-16 16h-49l-31 -4l-4 -51l-15 39l-14 16h-49l-6 -8h-17l-20 -2l-19 -20l-2 -62l-12 52l-33 -31v-15
l-22 -6l-10 -10l-17 -20l-8 -68l-8 57l-35 -30v-95l8 -59l21 84l-15 -119l11 -80l-15 52l-10 -64l6 -41l-6 -53v-47l10 -53l-2 -66l-8 -20v-48l10 -47l-10 -47v-47l10 -8l8 10l15 -31l10 -8l14 -22l9 170l8 -176l30 -29l23 -17l6 25l10 86l2 -131l21 -20h31l14 40l2 -28
l27 -12h36l19 12l18 -12l19 32l10 -28l29 4l16 -8h74l16 59l2 -39l47 47l2 25l9 8l18 -6l20 20l19 58v-39l18 18v49l-10 17l10 34v99l-28 -119l28 170v49l-10 35l10 14v51h-18l-16 -6l-21 -96l-8 66l-14 -13v45l-76 4l-25 -12l-12 12h-21l-18 -10l-21 10l-16 -18l-14 -27
l-13 47l-14 -14v-188h23v28l8 -28h4l2 71l4 -71h19v-56l14 5v-25l-14 -8v-19l10 -12l-10 -6v-29h-13l-6 -51l-8 51h-12l-2 -18l-13 18h-6l-4 -22l-8 22h-21l7 -14l-25 -4l6 59l-8 43l8 39v82l-20 123l-37 -225l33 249l-33 203l35 -184l22 162v41l-12 37l12 45h33v43l12 -43
h6l4 28l11 -28l8 106l4 -106h20l15 18l-8 -31v-59l10 -19l4 -12l-14 -4v-22l10 -19l-10 -6v-23l10 -6l6 -6h31l18 15l19 -7l14 82l6 -75l20 -15l17 8l14 -8h15l16 25l14 -17l17 -8h16l2 12l12 3v88l-10 12l-2 16l12 15v14l-14 8l14 21v45zM489 741
c10.667 0 17.667 3.66699 21 11c8 0 12.667 -2.33301 14 -7c0 -2.66699 -1.33301 -9 -4 -19s-4 -18 -4 -24h-8v25c-4 0 -7.33301 -0.166992 -10 -0.5s-5.66699 -0.833008 -9 -1.5v16zM8 1325l-8 -35l10 -28l4 28zM240 1106l2 18l-4 25l-2 -19z" />
    <glyph glyph-name="h" unicode="h" horiz-adv-x="625" 
d="M238 1417l-7 27l7 26v82l-13 -112l13 -51v28zM223 1427l2 13l-2 8l-2 -10zM590 1634l-25 -4l-8 -69l-12 57l-17 16l-14 -8l-16 8h-15l-22 -10l-8 10l-13 -16l-12 -33l-8 43l-29 6l-22 -4h-17l-8 4v-28l10 -109l-10 55v-55l4 -41v-26l-4 -13v-55l12 -25l-12 -28v-29
l-2 -47l10 -6l-2 -39l-12 12h-14l-2 -94l-9 78l-6 -25l-8 41h-14l-2 -8l-11 8h-14l-6 -26l-6 26h-8l2 160l-17 67l-20 -176l18 187l-18 84l20 -74l15 158v28l-17 -6l-14 6l-17 -14l-12 -43l-14 51l-21 -2l-14 8h-14l-19 -14l-14 14l-33 -8l-4 -29l-20 19l-5 18h-16v-30
l-14 -37v-133l10 -199v-66l-10 66v-68l20 -252l21 230l-21 -250l10 -107l-10 93l-24 -310l18 -2l16 19l13 -15l28 5l7 -9l24 4l14 39l11 -37l16 5l17 -5l10 -6h33l12 31l6 -27l27 -4v80l-5 23v28l5 31v82l-13 -8l2 43l11 45v108h8l4 11l6 8l8 -19h8l4 80l9 -69l6 -11h8l4 11
l8 -11h6l13 29l8 -29h6v-161l39 323l-39 -379v-53l4 -22v-27l2 -45l-6 -14v-27l21 -14l-17 -11l27 -2l12 27l8 -16l21 -2l4 -7l33 -2h30l25 17l6 -17l18 9l13 -9l14 54v-52l31 7v57l-6 57v68l6 76v133l-25 -267l25 400l-6 -23v142v131l6 16v133l-51 -284zM66 1554
c-10.667 -12 -19.666 -18.667 -26.999 -20c0 16 -2.66699 30.333 -8 43c1.33301 0 4.16602 1 8.49902 3s7.5 3 9.5 3c11.333 -7.33301 17 -17 17 -29zM469.001 621c-1.33301 -2.66699 -4.83203 -5.16699 -10.499 -7.5s-9.83398 -5.5 -12.501 -9.5
c-0.666992 -1.33301 -2.66699 -2 -6 -2s-5.33301 -0.666992 -6 -2c0.666992 1.33301 1 3.33301 1 6s0.333008 4.66699 1 6c11.333 12.667 18.333 23.667 21 33l8 4c1.33301 2 2 4.83301 2 8.5s0.666992 6.5 2 8.5v-45zM-9.99805 969l8 -74l-8 -59v-134l18 197l-14 127z
M10.002 915l-2 -16l2 -18v14v20z" />
    <glyph glyph-name="i" unicode="i" horiz-adv-x="279" 
d="M195 911l38 279l-2 39l13 6l-4 47v29l-13 28l13 25v55l-4 13v26l4 41v55l-11 -55l11 109v28l-9 -4h-16l-20 -43l-23 33l-16 -59l-11 57l-12 16l-10 -10l-23 -8l-14 18l-16 -8l-15 8l-24 -14l-11 -45l-2 55l-30 -6l57 -407l-51 284v-104l6 -45v-131l2 -142l-8 23l24 -399
l-24 266v-133l6 -76v-68l-6 -57v-66l26 9l5 45l14 -54l12 9l29 -5l10 33l12 -37h31l25 9l20 36l6 -38l15 20l10 -27l27 2l-5 11l9 14v27l-7 14l3 45v27l4 22v53l-27 406l27 -350v162l-11 71zM20 1223c1.33301 -1.33301 2 -3.99805 2 -7.99805s0.333008 -7 1 -9l8 -4
c4.66699 -11.333 12 -22.333 22 -33c0.666992 -0.666992 1 -2.33398 1 -5.00098s0.333008 -4.33398 1 -5.00098c-0.666992 0.666992 -2.66699 1 -6 1s-5.33301 0.333008 -6 1c-2 4 -5.83301 7.16699 -11.5 9.5s-9.5 4.83301 -11.5 7.5v45z" />
    <glyph glyph-name="j" unicode="j" horiz-adv-x="592" 
d="M223 903l-8 -24l8 -29v53zM317 1255l2 -45l7 -55l-7 -51v-53l17 94l-17 174zM563 1028l2 39l-8 53l8 62v172l-20 -273l20 -127zM340 1163l-4 -18l4 -25l2 23zM543 1040l2 41l-2 17l-2 -39zM213 872l2 7l-2 8l-2 -6zM565 1638h-16l-6 -32l-23 16l-16 -8l-6 26l-25 -8
l-16 6h-15l-10 -16l-10 10l-27 6h-30l-17 -10l-14 10h-15v-106l9 -59l-9 -48l21 -262l12 60l-10 -80l20 -242l-22 219l-21 -176v-160h-18l-6 -51l-6 51h-13l-2 -18l-8 18l-6 -59l-6 59h-18l-9 -10l-22 -4l-2 23l20 18v12l-10 49l-14 -41l12 50l-10 51l12 -45l10 41v53l4 6
h-12l-18 8l-11 -26l-10 18l-22 8h-15l-14 -37l-12 37h-29l-16 -20l-9 -31l-18 51l-10 -10h-15l-16 10v-102l12 -10l-6 -15v-16l-6 -27v-49l6 -16l-6 -19v-16l20 -18l17 45l2 -39l12 -35l41 -37l8 21l13 -39l10 -11l18 6l11 -20l2 -14l10 -9h16l6 7h15l22 -7l25 15l10 -8
l10 -7h45l27 21l8 22l8 -8l15 -35h30l31 27l6 55l15 -34l30 26l15 76l8 -29l8 -18l21 18l8 35l12 -14l10 8v115l-22 200l-19 -256l17 275l-23 198l25 -159l22 368l-8 47l8 68v57zM518 1561c-2 -6 -5.33301 -11.666 -10 -16.999s-8.66699 -8 -12 -8c0 20 -3 33.667 -9 41
c6 0 11.667 -4 17 -12c0 2.66699 -2 10 -6 22c0 5.33301 2.66699 8 8 8c8 -2.66699 13.333 -9.33398 16 -20.001c0 -4 -1.33301 -8.66699 -4 -14z" />
    <glyph glyph-name="k" unicode="k" horiz-adv-x="713" 
d="M-12 1378v-65v-68v-65v-68l10 96l-10 238v-68zM-12 979v-66l18 117l-6 117zM0 1229l-2 -21l2 -61l2 24zM219 797l2 10l-2 18l-2 -10zM6 1040v-10l2 -59v12zM664 651h-15l-16 70l-15 35l-24 24l-6 47l-47 105v-66l-31 135l-16 35l-19 4l-12 68l-17 35l27 61l27 113v-49
l39 94l14 45l-2 27l29 22l24 76l-6 39l18 -10l17 20l24 64h-30l-6 -17l-27 17h-16l-17 -9l-22 -10l-11 19l-20 2l-19 -13l-24 11l-23 -39l-12 32l-31 7l-10 -29l-16 -129l-4 74l-29 -82l-2 -45l-19 -13l-20 -55l-10 -113l-10 58l-41 -111v139l-17 11v36l15 31l-15 25l15 33
l2 30v111l-9 18l-16 -6l-8 17h-31l-8 -23l-14 -18l-23 41h-16l-13 -17l-18 17l-16 -9l-15 9l-26 -15l-2 -31l-19 46h-16v-68l12 -348l23 213l-21 -271l4 -131l27 181l-25 -238l8 -231l-8 219l-20 -191v-65l10 -64l-10 -69l28 12l2 -12h17l14 26l8 -22l27 6l12 -10h17l20 8
l10 -8l19 8l12 -8l21 22l2 -14l24 -8h17v53l-19 162l-22 -101l20 119l-14 131l16 -121l19 107v82l32 -82l9 6l12 -59l45 -109l2 61l20 -114l54 -135h18l12 34l17 -20l24 -14h19l30 12l7 16l16 -28h35v47l16 -47h19l20 10l14 -10h37zM55 1559l-0.000976562 13.998
c-4 4 -6 10 -6 18l-8 -12c-4 0 -6 1.33301 -6 4v19h16v-7h6c1.33301 -2.66699 2 -8.66699 2 -18l-4 -4c2.66699 -2.66699 5.33398 -4.66699 8.00098 -6c0 -1.33301 -1.33301 -2.66602 -4 -3.99902s-4 -2.66602 -4 -3.99902zM267.999 1065
c-0.666992 0 -2.16895 1.66504 -4.50195 4.99805s-4.83301 5.66602 -7.5 6.99902c-1.33301 5.33301 -2 15 -2 29c-14 17.333 -22.333 30.333 -25 39c-1.33301 5.33301 -2.66602 13.833 -3.99902 25.5s-3.33301 20.834 -6 27.501c-0.666992 3.33301 -1.16699 6.33301 -1.5 9
s-1.16602 6 -2.49902 10c-8 26.667 -13.333 47 -16 61c-6 9.33301 -9.66699 14.666 -11 15.999l9 -12c1.33301 0 2 -1.33301 2 -4c1.33301 -1.33301 2.5 -2.66602 3.5 -3.99902s1.83301 -2.66602 2.5 -3.99902c6.66699 -11.333 10 -29 10 -53c16.667 -48 29 -81.667 37 -101
c0.666992 -1.33301 1.16699 -2.66602 1.5 -3.99902s0.5 -3.33301 0.5 -6l7.5 -9c2.33301 -2.66699 4.5 -6 6.5 -10v-22zM448.997 663.996c-4 -6.66699 -10.333 -10.999 -19 -12.999v-6c6.66699 0 10.667 -1.33301 12 -4c0 -2 -0.166992 -3.5 -0.5 -4.5
s-0.833008 -2.16699 -1.5 -3.5h-18c0 3.33301 -1.33301 8.66602 -4 15.999s-4 15 -4 23c1.33301 2.66699 4 4 8 4v-6h12v22c0 -4 2.5 -8.83301 7.5 -14.5s7.5 -10.167 7.5 -13.5zM237.997 716.997v26v27l-9 35l9 18v29v27l-17 -72l17 -119v29z" />
    <glyph glyph-name="l" unicode="l" horiz-adv-x="502" 
d="M2 1372l4 41l-4 25v-66zM250 1368l-8 -147l8 -70v217zM250 989v53l-12 136l-5 -70zM473 686v25l-16 -31l6 -25zM463 639l4 6l-4 10l-2 -8zM473 662l-6 -17l6 -22v39zM2 905l2 53l-2 15v-68zM229 1071l2 -14l2 51l-2 16zM455 676l2 4l-4 10v-4zM238 1178l4 43l-4 20
l-2 -37zM12 1473l-6 -60l4 -27l4 62zM473 772l-18 -18l-11 18h-26l-15 -29l-14 29h-41l-14 -10h-15l-14 10l-29 -4l-10 -51l-2 55l-20 -6l6 115l-19 176l-14 -213l12 227l-41 375l43 -322l5 80l-13 150l15 -113l12 236l-8 45l8 63v53l-14 -8l-17 8l-6 -22h-14l-27 22h-31
l-16 -16l-14 16h-17l-12 -34l-19 34h-16l-10 -10l-21 10h-14v-67l10 -98l11 90l-9 -115l25 -209l-29 147l-8 -147v-68l4 -57l2 -27l4 95v-150l17 -241l-17 110v-133l-10 -61v-134h29l14 58l12 -33l11 8l8 -26l57 8l55 -13l37 15l41 -17l25 11l71 -4v88l23 -95l29 17l30 -17
h29v25l-10 41l-17 -39l15 47l-6 29l-29 -51l27 61l-9 33l9 -29l20 45v37zM217 700v-2.00195v-32v32c0 56 0.666992 98.333 2 127c4 16.667 6 34.667 6 54c0.666992 -15.333 1.16699 -29.666 1.5 -42.999s0.5 -30.666 0.5 -51.999c0 -33.333 -3.33301 -61.333 -10 -84z
M8 1087l-4 -129l8 -57v131z" />
    <glyph glyph-name="m" unicode="m" horiz-adv-x="795" 
d="M-4 1231l4 -74l-4 -59v-66l-6 -82l22 207l-16 207v-133zM537 911l6 -49l-6 -37v-129l14 176l-14 125v-86zM772 1364v66l-14 -117l12 -72zM754 1317l2 -23l2 19l-2 22zM16 1190l-4 -33l4 -43l2 37zM754 1317l-15 127l17 -109l16 228v67h-37l-8 -12l-33 4l-14 8l-16 -6h-19
l-20 6l-7 -49l-14 35l-20 -17l-9 25h-34l-27 6h-37l-4 -33l2 -180l-12 117l-68 -418h-2h-2h-2h-2l2 -55l-6 55l-4 -115l2 115h-2h-2h-2h-2h-2l-41 256l-8 -106v172l-31 192l-29 -12l-8 12h-18l-25 -12l-10 -19l-21 31l-18 -8l-29 -4l-8 12h-37l-20 -20l-17 12l-22 -43
l-15 51h-18v-133l20 -307l17 168l-15 -207l25 -389l-27 352l-20 -280v-267h14l4 51l19 -45l20 -6l17 8h14l14 -8h15l26 -2l4 45l15 -43h14l10 2l17 15l18 -17h14v127l-22 258l22 -174v467l41 -297l9 39l12 -106l-2 -60l35 -254h20l8 37l4 -37h21l4 23l8 -23h21l6 66l8 -66h6
l12 86l7 133l8 -47v70l12 16l14 86l4 260l9 -174l39 260v-172l16 -188l16 225l-14 -243l12 -158l-14 133l-16 -244v-43h30l15 37l14 -37h29l18 11l12 -11h15l12 37l16 -26l21 81l8 -92l12 15h15l18 -15v199l-16 51l8 80l8 70v198l-16 129l-11 -104zM215 1561
c0 -1.33301 -2 -2.00391 -6 -2.00391c0 -3.33301 -1.66699 -8.16602 -5 -14.499s-5 -10.5 -5 -12.5c6.66699 0 10 -2 10 -6c0 -2 -0.666992 -5.66699 -2 -11s-2 -10 -2 -14l-6 -6c-2.66699 0 -4 7 -4 21c-0.666992 4.66699 -2.33398 9.33398 -5.00098 14.001
s-4 9.33398 -4 14.001c6.66699 19.333 12.334 29 17.001 29c8 0 12.667 -0.666992 14 -2c-1.33301 -1.33301 -2 -4.66602 -2 -9.99902zM553 896.996l-2 -25l2 -18l2 25z" />
    <glyph glyph-name="n" unicode="n" horiz-adv-x="633" 
d="M-2 971l4 43l-4 24v-67zM6 1069l-4 -55l4 -23l2 56zM608 1569l-10 39l-4 28h-45l-23 -12l-12 -37l-8 49h-31l-4 -6h-14l-25 6h-59v-157l6 -45l-6 -19v-280l-76 249l-4 -34l-14 98l-58 188h-43l-10 -82l-8 78l-23 4l-14 -6l-14 6l-17 -14l-10 14h-14l-29 -4l6 -55l-20 59
h-27v-305l18 172l-2 -186l23 96l-35 -205l23 66l-27 -103l8 -102l8 82l-6 -104l15 -150l-17 94l-8 -153v-199l4 -47l10 -19h15l12 9l18 8v-19l29 2l14 11l15 -11h43l22 35l8 -24l9 51l6 -60l28 -2v189l-6 24l6 37v33l-6 35l6 27v157l62 -188l-14 129l34 -193l43 -125l17 -14
l4 -49l10 -31l-14 -22l49 -7l-10 33l18 -16l19 -8l14 -11h12l12 9l15 -9l12 11l14 -11l21 5v14l16 31l4 -50h25l14 66v133l-8 84l8 49v531l-10 -322zM467 1561c0 -4.66699 -3.99805 -7.00098 -11.998 -7.00098s-13 2.33301 -15 7c-1.33301 1.33301 -2 3.16602 -2 5.49902
s-0.666992 3.83301 -2 4.5c0 1.33301 2.16699 3.5 6.5 6.5s6.5 4.83301 6.5 5.5l-19 -4v-10h-6l-12 -6c0 18.667 0.666992 29.334 2 32.001c5.33301 2.66699 8.66602 4 9.99902 4c3.33301 0 7.16602 -1 11.499 -3s9.5 -3.66699 15.5 -5
c13.333 -1.33301 20 -6.66602 20 -15.999c0 -4 -1.33301 -8.66699 -4 -14z" />
    <glyph glyph-name="o" unicode="o" horiz-adv-x="633" 
d="M596 1067l2 20l-2 31l-2 -22zM606 1202l-8 -115l8 -161v276zM6 1026l-2 -16l2 -31v18v29zM606 1432v47l-41 41l-4 -82l-16 102l-31 31l-14 -8l-11 -7l-6 46l-41 40h-16l-20 -18l-17 18h-16l-35 -2v-57l-19 59l-26 -10l-10 10h-17l-24 -10l-13 10h-69l-10 -10l-11 -96
l-2 74l-18 -8l-31 -31l-4 -39l-10 14l-19 -6l-30 -31l-11 -73l-10 53l-10 -10v-158l12 -51l-12 -23l12 -221l12 123l-12 -152l10 -182l-10 164l-12 -145v-93l10 -10l14 -4l5 -16l20 -21l8 47l10 -67l11 -11l26 -8l-8 -12l10 -10l15 -2l6 32l8 -61l21 -20h16l22 22l15 -22h18
l31 10l12 28l12 -38h19l33 4l10 10l12 -14h19l18 18l27 -14l10 10l18 -14l21 20l14 43v-16l17 4l41 41l14 63l6 -43l41 41l10 57v46l-10 233l-12 -156l10 185l-10 247l12 -225l10 176l-4 35v45zM362 1112l-6 -86l13 -172l-13 147l-8 -141v-82h-18l-4 -61l-7 53v-14l-12 22
h-6l-4 -26l-8 26l-4 -47l-6 47h-25l-8 113l-13 -68v41l9 76l-4 33l4 -25l12 117l-10 111l10 -29v41l-8 20v41l8 62v123h12l4 30l9 -30h16l8 69l4 -69h6l13 14l-2 -14h6l2 6l16 8l12 -16l-22 -50l24 -235l9 108l-9 -122l13 -207zM481 745
c0 -6.66699 -2.00098 -11.334 -6.00098 -14.001v-10c-2.66699 0 -4 -0.666992 -4 -2c8 74 12 147.667 12 221l-3.5 82.5c-1 23.667 -2.5 43.167 -4.5 58.5c0 18.667 -1.33301 45.334 -4 80.001c0 26 1.33301 46 4 60c2 10.667 3.5 23.5 4.5 38.5s1.66699 32.333 2 52
s0.833008 34.5 1.5 44.5h6c-1.33301 -49.333 -2 -123 -2 -221s-0.666992 -171.333 -2 -220c0 -6.66699 0.666992 -12 2 -16c1.33301 -2.66699 2.33301 -5.16699 3 -7.5s1.33398 -3.83301 2.00098 -4.5c0 -64 -3.66699 -111.333 -11 -142zM253.999 942l-6 -37l6 -45v82z
M361.999 1147l-2 -21l2 -14v21v14zM241.999 948v-8l4 -49l2 14zM347.999 1188l8 -135l4 73l-12 185v-123zM-6.00098 926l10 84l-10 145v-229zM353.999 1028l2 -27v25v27zM347.999 942l6 86l-6 78v-164z" />
    <glyph glyph-name="p" unicode="p" horiz-adv-x="625" 
d="M2 1554l-4 -65l2 -16l2 67v14zM-6 580l10 393l-10 203v-596zM-6 1440l4 49l-4 18v-67zM4 1022v-49l4 -86v49zM246 1305l-2 -9l2 -12v6v15zM356 1303l-2 4l-2 -15l2 -12h6zM252 1321l-6 -31l6 -65v96zM352 1298l-2 -16h2v10v6zM559 1516l-8 -17v14l-21 5l-14 36l-10 -2
l-12 21l-23 18l-8 -4l-12 23l-33 28h-27l-12 -20l-25 8l-14 19l-74 -7l-8 -16h-27l7 16h-60l-51 -2l-6 -34l-10 -3v37l-66 -2l-25 4h-26l8 -84l4 66l-4 -80l14 -162l-16 95l-6 -164l10 -287l6 238l-2 -324l10 -272l-10 223l-2 -305l37 -2h63l17 10l16 -10h17l24 2l25 -2
l6 71l10 -71h31v92l-6 26l6 21v92l-6 25l6 22v70l-12 22l18 15l16 -15h45l9 8l12 -8h22l25 2l8 39l2 -35l11 -6h22l70 68l16 57l4 -39l31 29l8 20l12 -2l21 21v72l-14 24l8 25l6 22v72l-6 27l6 22v119zM354 1280l-2 2l-6 -76v-37l8 -22l-12 2h-18l-7 -82l-6 82h-16l-6 -19
l-6 19h-19v-16l-12 16v39l-6 96l-8 -43l6 55l-6 101l8 -92l6 53v76l-16 20l16 8l12 -8h31l4 29l6 -29h12v19l13 -19h16v-96l8 -39l8 119l-8 -125l2 -10l13 -25l-9 2l15 -90zM346 1321l6 -23v13zM346 1245l4 37h-4v-37zM354 1307v6v6l-2 -8z" />
    <glyph glyph-name="q" unicode="q" horiz-adv-x="641" 
d="M461 1640l10 -10l12 -82l11 37l6 17l18 -19l4 -22l17 2l8 -9l10 -57l10 37l8 -8l11 -17l6 -137l12 125l10 -10l-6 -51v-41l6 -35v-43l-10 -64l10 -20v-86l-6 -84h6v-43l-6 -47l-12 -29l18 -51v-84l-20 -21l-12 66v-78l-9 -6l-10 4l-2 -18l-6 -6l-8 20l-6 -33l-33 -32h41
l8 -54l4 54h21l6 -25l6 25h14l-4 -11l10 2v-32l-6 -11l6 -6v-8l-12 -12v-9l12 -4v-39l-26 21l-13 -16l-45 -5h-28l-25 39l-8 -36l-47 24l-31 -27h-29l-30 19l-35 -19l-18 39l-27 -39h-84l-10 11l-6 67l-15 -47l-22 21v32h-21v21l-20 -12l-31 28l-8 99l-12 -78l-21 20v47
l31 572l-31 -479v184l10 -35l-10 127v137l33 -481l-33 573v93l10 10h15l6 20l20 21l17 -21l8 23l6 28l10 11l12 2l9 18l22 23l8 -27l13 47l10 10h37l33 -8l4 -30l18 38h37l18 -22l17 16l18 6l15 -8l22 8l29 -8l8 -28l18 36h19zM369 774v41l26 -160l-28 213l6 56v41l-4 59v41
l12 285l-12 -201v125l24 -158l-24 242v41l4 31l-11 10h-14l-10 49l-10 -49h-6l-11 14l-10 -8l-6 31l-6 -37h-27l-24 -467l24 385v-125l-6 -39l6 -45v-41l-22 242l22 -326v-84l-6 -49l6 -33v-43l-8 -33l-6 -16l18 10l17 -2h6l4 -67l8 67l8 -20l6 20h7l12 -26l2 20l6 6h6
l4 -24l10 24h7z" />
    <glyph glyph-name="r" unicode="r" horiz-adv-x="618" 
d="M584 1497l-13 -55l-8 14v51l-20 21l-4 -37l-7 45l-26 27l-10 10l-23 16l2 -41l-12 54l-12 8l-11 10l-2 -10l-20 28h-27h-26l-29 -4l-25 4h-26h-27h-25l-45 -8l-8 8h-26h-27l-18 -4l-35 4h-27l-16 -2l-37 2v-65l10 -402l27 439l-25 -496l12 -448l-14 421l-10 -247v-66v-67
v-66v-68h14l19 15l14 -15h14h17h14l16 7l7 18l24 -25h17h14h16h29l8 29l10 -29h15v29v27v26l-6 23l6 31v28v27l-9 27l9 26v27v28l-6 27l6 27v26v29v27h8h6h6h6l21 28l6 -28h-6h6h6l10 14l-2 53l13 -67h6h8l20 4l-8 -4v-27v-29l6 -28l-6 -25v-27v-28v-27v-26v-27l12 29
l-12 -84v-27v-27v-26v-27v-29h17l16 91l-2 -86l20 12l9 -10h24l19 10l16 -8l20 -9l2 9l19 16l24 -25h17h14l17 15l14 -15v29v27l-8 24l8 29v27v28v27l-12 27l2 22l10 31v28v27v27v26v29v27l-8 6l-8 6l-9 6l-2 -35v31l-20 25l-8 6l-9 6l-8 6l-8 8l2 -37l-12 17l-15 39l-8 6
l-8 6l-8 8l8 6l8 4l8 6l9 7l8 6l8 6l8 6v21l17 -11l-9 27l9 6l22 -14l8 6l9 6l8 4l8 6v19v16v18v19v16l-10 17l10 18v19v18l-10 10l10 25v16v19v18v16v19zM348 1366v-14l8 -47l-8 18v-14v-17v-14v-14v-15v-14v-16l17 -23l-25 -2l-4 10h-8h-6l-9 -8l-4 8v-24l-14 24h-6h-6
l-11 -51l-10 37l-6 14h-6h-8v15v16v14l-13 -18l13 47v14v15l-15 53l15 -23v15v14v14l-17 35l17 -4v14v15h8l16 12l-4 -12h6h8h7v16l12 -16h6h8l4 39l11 -27l4 -12h8h6h6v-15v-14v-14l21 35zM-6 1372v-65v-68v-65v-68v-66v-67l10 172l-10 295v-68zM4 1171v-26v-58l2 27z" />
    <glyph glyph-name="s" unicode="s" horiz-adv-x="629" 
d="M580 1321v-14h-29l-14 14l-9 39l-8 -47l-28 -6h-29l-6 12l-25 -12l-6 20l-35 -18l-6 77l-10 -79h-17v53l9 8v43l-9 10v27l-8 10l-4 -10h-10l-8 14h-6l-13 -8l-6 8h-12l-4 -14h-25l2 -14l-26 -115l26 88v-14l-22 -97v-69l22 123v-82l-26 141l26 -170v-14h10l7 -92l14 92
h43l16 -13l4 13h31l12 -11l9 9h20l10 -11l11 -55l12 35l22 -21l7 -18l16 -2l10 -10l14 -103l9 82l22 -20l10 -10l13 -48l2 25l20 -8v-21l-20 -243l20 200v-207l-16 254l16 -294v-21l-10 -10l-12 14l-6 -33l-11 -10l-10 -2l-10 -10l-8 -17l-11 -10h-12l-6 4l-2 25l-8 -47
l-19 -29l-18 10l-2 -28l-10 -11l-33 2l2 15l-23 -17h-16l-39 5l-6 34l-8 -39h-19l-18 13l-10 -6l-25 -7h-37l-14 7h-19l-20 -7l-21 21l-8 57l-6 -41l-16 15l-21 20l-10 98l-2 -81l-21 16l-2 16l-10 11l-18 4l-10 55l-5 -39l-16 14v35h8v12l-2 5v34l2 -4v35l-8 25v47h16
l15 -6l18 6l17 -21l16 21h33l30 -2l7 -37l12 39h16l13 -10l22 6l12 -17l17 21h16v-8l-8 -52l8 15v-35l-45 -201l45 164v-25h19l8 -71l4 71h18l8 -24l5 24h12l4 -49l6 49h12v13l9 145l-9 -119v109l31 -129l-31 180v14l-14 5l-10 36l-6 -34l-13 -7h-22l-10 9l-17 -7l-10 11
l-6 -13h-45l-10 11l-13 -11l-10 11l-6 51l-8 -37l-31 31l2 16l-16 2l-17 51l-10 -30l-27 28l-12 31l-10 -8l-35 33v57l2 4v18l-2 35v115l21 -168l-21 205v39l10 10h17l2 18l18 21h12l11 -82l8 111l37 38l10 -49l10 68l19 18h18l12 -6l23 6h18l19 -6l20 -76l-6 76l39 6h16
l21 -12l16 12l21 2l20 -26l8 -23l23 47h16l11 -8l10 -96l6 57l22 4l19 -18l12 -59l8 40l37 -34l4 -41l17 24l10 -10v-22l-14 -109l14 84v-70l-16 80l16 -104v-23l-8 -18z" />
    <glyph glyph-name="t" unicode="t" horiz-adv-x="557" 
d="M4 1546v-12v-12v-15l8 17l-8 37v-15zM498 1638h-33l-4 -43l-25 15h-10l-14 30l-64 -2l-63 4l-11 -51l-6 49l-100 -2l-62 2l-12 -18l-18 -10l-13 33l-59 -7v-12v-14v-13v-14l10 -57v2l13 63l-9 -57l17 35l-19 -55l11 -68l-13 63v-2l-10 -67v-12h8h8l9 -5l10 5h8h8l11 8
l8 -8h8h8l2 10l14 -4l11 -6h8h10h8v-54v-53l2 -55l-2 -51v-54l19 -243l14 178l-12 -201l10 -131l-12 111l-4 -82l6 -86l-8 59l-13 -188h29l-2 34l18 -34h17h16h15l16 8l16 6l6 -10l23 -4h16h31l16 30l5 -22l10 -8h16v53l-4 57l4 47v54l-10 174l-6 -154l4 164l-10 184
l12 -143v51l-8 113l10 -70l8 266l-4 58l12 -4h9h18l4 8l10 2l4 24l9 -34h8h8h8h10l7 8l10 -8h8h10v10l8 2v14v12v13l-6 16l-2 -14l2 16l-4 17l6 -5l4 35v15v12v12l-6 17l6 10v14v12h-32zM340 764c0 3.33301 -0.499023 7.16895 -1.49902 11.502s-2.5 6.5 -4.5 6.5v-65
c0.666992 -1.33301 1.16699 -2.5 1.5 -3.5s0.5 -2.5 0.5 -4.5c0 -20.667 -0.666992 -36.334 -2 -47.001c0 -4.66699 -0.166992 -8.66699 -0.5 -12s-0.833008 -7 -1.5 -11c0 -2.66699 0.666992 -4 2 -4v-29l-2 8v25c-5.33301 20.667 -8 41.667 -8 63
c1.33301 7.33301 4.66602 17.666 9.99902 30.999c0 5.33301 -0.166992 9.33301 -0.5 12s-0.833008 5.66699 -1.5 9c-1.33301 21.333 -2 54.666 -2 99.999c2.66699 0 4 1.33301 4 4v-24c4 -15.333 6 -38.666 6 -69.999zM391.001 897.003v53l-8 101l-2 -45zM4.00098 1468l4 27
l-4 -14v-13zM143.001 791.003v-54v-67l9 121l-9 53v-53zM143.001 1057l2 -70l-2 -37l11 -127l6 72zM14.001 1511l2 5l-2 4l4 16l-4 -6v-4v2l-2 -4v-6l-4 -23l6 14v2zM154.001 823.003l-2 -32l4 -23l2 27zM164.001 897.003l-2 23l-2 -25l2 -18zM530.001 1522l-2 -13l2 -2v15z
M383.001 1051l2 49l-2 10l-2 -43zM379.001 975.003l2 -10v41v10zM524.001 1497l4 12l-2 2l-2 -12v-2zM391.001 1110v53v54v53l-6 -170l6 -43v53z" />
    <glyph glyph-name="u" unicode="u" horiz-adv-x="647" 
d="M621 1126l-3 58l3 55v113l-11 -174l11 -107v55zM362 1417l5 -69l-5 -37v-56l9 109l-9 109v-56zM256 1147l-4 67l4 41v162l-14 -200l14 -179v109zM-2 1184l10 76l-10 149v-225zM373 1395l-2 -31l2 -23v33v21zM12 1278l-4 -18l2 -33l2 24v27zM608 1141l2 37l-2 20v-37v-20z
M590 1624l-19 10l-14 -49l-10 31l-23 18h-32l-15 -10l-18 10h-17l-14 -10h-16l-17 10h-33v-53l11 -186l6 94l-6 -115l12 -205l-12 172l-11 -194v-162l7 -37l2 -82l-9 -43v-55h-6l-6 -47l-12 22l-10 13h-15l-10 12h-27l-4 -25l-10 25h-6v55l-33 -227l33 336l-16 254l-25 -379
l23 412l-15 254l17 -226l16 279l2 86l-12 12l-6 10h-17l-14 -16l-16 16h-17l-18 -14l-19 -14v28h-45l-12 -8h-16l-19 8l-12 -2h-15l-22 2v-112l14 -244l8 59l-8 -86l13 -227l-15 203l-12 -156v-113l8 -77v-58l-8 -35v-55l22 -20h19l4 -21l6 4l14 -24l23 -21l6 21l14 -29
l13 -22l10 -11l23 -16l4 86l8 -100l10 -11h88l6 23l17 -23h37l20 11l16 -11l29 2l8 37l19 -39h55l8 11l10 133l11 -113l28 31l6 22l13 11v22l18 -14l21 20l8 119l10 -98l19 20v225l-13 183l-10 -191l10 211l-12 180l12 -143l13 268l-5 47l5 66v55h-17zM139 1540
c-1.33301 0 -3.33105 -0.666992 -5.99805 -2s-4.66699 -2 -6 -2c-4 0 -6.66699 1.33301 -8 4h6v27c1.33301 0.666992 2.66602 1.16699 3.99902 1.5s2.66602 0.5 3.99902 0.5v8c2 0 3.66699 -0.166992 5 -0.5s3 -0.833008 5 -1.5c0 -22 -1.33301 -33.667 -4 -35z
M240.002 1186l2 31l-2 30l-2 -28z" />
    <glyph glyph-name="v" unicode="v" horiz-adv-x="682" 
d="M614 1634l-18 -43l-2 41l-29 2l-12 -10h-16l-21 10h-16l-19 -22l-12 22l-16 -18l-19 -12l-14 30h-17l-8 -100l-4 -371l-2 269l-47 -607h-2h-2h-2h-2h-2h-2h-2h-2h-2h-2l-23 303l-8 -260v363l-31 403h-16l-19 -8l-14 8h-16l-13 -67l-4 59l-31 8h-32l-19 -10l-14 10h-16
l-19 -35l-12 35h-33l8 -67l21 -80l8 -66l-2 -53l82 -600l-21 399l37 -532l10 -66l27 15l21 -15l53 2v64l16 -47l14 -19l41 9l15 -9l51 9l12 40l8 -49l37 2h37v107l21 -109h22l27 199l41 623l-23 -490l97 733h-48z" />
    <glyph glyph-name="w" unicode="w" horiz-adv-x="885" 
d="M80 1169l14 -69l8 -64l23 -133l-27 215l-51 250zM496 1442v-88l18 -74zM469 801v-17l4 -14l-2 16zM496 1333v21l-4 16v-20zM784 1288l-6 -47l8 29l5 43zM784 1288l21 162l-14 -137l59 256l12 65h-31l-14 -16l-16 16h-17l-10 -8l-16 -16l-19 24h-16l-14 -12h-15l-18 12
h-14l-13 -51l-14 45l-21 6l-8 -63l-4 -275l-4 209l-55 -387h-2h-2h-2h-2h-3l-10 99l-26 116v-155l-4 172l-31 141l31 -121l-5 135l-14 129h-22l-2 -32l-11 32h-6v-18l-12 18h-10l-9 -147l-4 147h-18l-14 -129l6 -43l-4 -32l-13 -21l-32 -291h-3h-2h-2h-2h-2h-2h-2l-39 291
l4 -156l-4 33l-12 219l-14 97v20h-15l-12 -41l-16 41l-19 12h-16l-2 -8l-27 8h-14l-10 -18l-17 -25l2 41l-35 2h-14l-4 -10h-14l-27 10l23 -133l69 -350l-24 211l30 -242l80 -401l-76 364l41 -313l33 -201l21 23l4 -23h35l8 19h12l14 -19h37l15 17l10 41l10 -58h23l12 111
l2 72l-8 77l16 -65l8 84l-6 158l12 -103l13 111h2h2h2h2h2h2h2h2h2h2h2l13 -111l18 -102l-2 129l4 -144l21 -102l-19 86l4 -117l8 -84h13l12 82l10 -82h25l18 15l17 -15h12l10 15l16 16l9 -31h12l6 23l17 -23h12l12 68l4 84l19 49l36 199l33 272l-88 -346zM584 1034
c0 -25.333 0.166992 -50.668 0.5 -76.001s0.833008 -51 1.5 -77c0 -23.333 1.33301 -40.666 4 -51.999l-4 11.5c-1.33301 3.66699 -3.33301 8.16699 -6 13.5c-1.33301 12 -2 30.333 -2 55c0 15.333 0.666992 33 2 53s2.66602 44 3.99902 72c1.33301 31.333 2 79.333 2 144
l8 16c0 -11.333 -0.666992 -27.5 -2 -48.5s-2.66602 -40.333 -3.99902 -58zM793 1235l4 39l18 94l12 68l-41 -166l-18 -168zM471 708.998l-2 75l-12 64zM94 1151l4 -33l6 -35l-4 37z" />
    <glyph glyph-name="x" unicode="x" horiz-adv-x="719" 
d="M612 782l-6 -53l-20 123l-15 35l-10 -4l-16 71l-13 35l-12 15l-4 -78l-24 166l-13 34l74 193l27 151v-86l100 258h-33l-33 -4l-10 -51l-6 55h-31l-18 -16l-27 10l-6 -34l-14 40l-29 -4l-8 -47l-12 51h-31l-12 -36l-4 -121l-7 84l-47 -164l-33 -383l23 346l-4 -18h-2h-2
h-2h-2h-2h-2l-35 145l-6 -102l-4 139l-27 110h-16l-11 -67l-10 63l-27 4l-14 -14l-10 -24l-25 38h-32l-11 -12l-16 -8l-21 20h-65l63 -161l13 -13l4 50l20 -134l51 -129l21 -41l-4 127l20 -182l13 -33l-27 -69l-39 -246l12 178l-157 -411h30l25 12l8 -12l35 8l6 20l23 -26
h14l12 77l8 -79h31l31 2l6 26l12 -28h17l10 34l8 113l2 -78l31 105l4 157l6 -123l21 70h2h2h2h2h2h2l63 -192l-8 133l21 -168l18 -51h33l8 18l21 -16l20 -2l16 12l15 -12h16l12 24l21 -24l31 2l-4 67l22 -69h49z" />
    <glyph glyph-name="y" unicode="y" horiz-adv-x="709" 
d="M475 940l-8 -152l8 -104v256zM227 881v-27v-4l2 27zM217 684l10 170l-10 86v-256zM465 772l2 16l-2 13v-19v-10zM672 1634l-13 -12l-20 12h-16l-15 -10l-16 -22v28l-35 4h-63l6 -18l-15 -23l-18 23h-16l-5 -23l-24 -6l-12 -69l-2 -211l-5 163l-34 -208h-2h-2h-3h-2h-2h-2
l-65 256l8 -183l-18 230l-19 69h-16l-21 -8l-12 -18l-16 26h-31l-27 -2l-4 -129l-18 131h-49l-11 -32l-14 22l-23 10h-16l66 -190l28 -62l15 -36l-2 -15l39 -114l-15 231l27 -260l28 -86l27 -76v-29l10 -116l4 61l-2 -65l25 -256l-27 229l-10 -223v-58h16l15 23l18 -23h31
l20 19l13 -10l16 -9h33l29 27l6 22l10 -32l18 -17h33v58l-10 145l-8 -143l8 153l-12 150l12 -131l10 196v29l53 152l27 280l-10 -223l22 57l15 39l8 43l12 37l19 33l14 39l18 110l9 -34l26 75h-16zM350 993c0 45.333 -2.66699 84.334 -8 117.001v86
c-2.66699 24.667 -4 61 -4 109l8 -11c-1.33301 -10 -2 -24.333 -2 -43s-0.666992 -33 -2 -43v-12c5.33301 -90.667 8 -158.334 8 -203.001z" />
    <glyph glyph-name="z" unicode="z" horiz-adv-x="674" 
d="M98 1638h74l39 -6l8 -141l2 147h176l45 -8l15 -65l16 73h25l28 -34l2 -37l17 12l28 -35l15 -41l10 -33l4 39l21 -22l14 -41l4 16l10 -10l-22 -43l-39 -49l-23 -41l-4 -37l-22 -43l-49 -84l6 53l-45 -98v-41l-66 -127l-47 -86l2 64l-20 -105l-23 -43h18l21 -106v98l35 8
h55l18 -12l19 -31v35l37 8l35 -8l8 -35l12 43h37v-24l-25 -150l25 125v-100l-19 114l19 -139v-25h-57l-62 5l-8 59l-14 -64h-56l-30 19l-19 -14l-35 -5h-55l-55 5l-6 32l-23 -37h-29l-26 35l-2 156l-15 -133l-36 47l-5 74l-12 -50l-45 58l133 254v-51l43 137l88 170l45 55
l9 -63l12 135l22 41h-161l-27 26l-4 125l-19 -151h-47v26l13 150l-13 -125v74l25 -90l-25 114v15l13 -140l-13 164v12z" />
    <glyph glyph-name="uni00A0" unicode="&#xa0;" horiz-adv-x="1202" 
 />
    <glyph glyph-name="quotedblleft" unicode="&#x201c;" horiz-adv-x="653" 
d="M375 1378l8 19l8 18l8 19l9 18l4 -76l12 111l8 18l10 4l9 17l6 33l8 18l8 18l10 -63l6 100l9 17l8 18l6 -6l6 -6l6 -4l6 -6l7 -7l6 -6l6 -6l6 -6l6 -6l6 -4l6 -6l5 -7l6 -6l6 -6l6 -6l6 -6l-4 -8l-6 -11l-4 -8l-6 -10l-9 23l-2 -39l-6 -11l-4 -8l-6 -10l-4 -8l-4 67
l-6 -86l-6 -10l-7 -8l-4 -10l-6 -9h6h6h7l10 -49l2 49h6h6h6h6h7h6l4 -120l8 120h6h4h6v-16v-16v-19v-16v-17v-16v-16v-17v-59l-8 61v-79v-17l8 -31v-16v-18v-17h-14l-20 10l-11 105v-109l-28 -6h-17l-6 6h-16l-23 -6h-14l-21 19l-20 -13l-4 -6l-17 12l-14 -12h-14v15v14v12
l22 207l-22 -178v12v14v15v55v12v15l16 -140l-16 166v15v14v12zM-2 1378l8 19l8 18l9 19l8 18l4 -76l12 111l8 18l11 4l8 17l6 33l8 18l8 18l8 -63l9 100l8 17l8 18l6 -6l6 -6l6 -4l7 -6l6 -7l6 -6l6 -6l6 -6l6 -6l4 -4l7 -6l6 -7l6 -6l6 -6l6 -6l6 -6l-4 -8l-6 -11l-6 -8
l-4 -10l-8 23l-2 -39l-7 -11l-4 -8l-6 -10l-4 -8l-4 67l-8 -86l-4 -10l-6 -8l-5 -10l-6 -9h6h7h6l10 -49l2 49h6h6h6h7h6h6l4 -120l8 120h4h6h7v-16v-16v-19v-16v-17v-16v-16v-17v-59l-9 61v-79v-17l9 -31v-16v-18v-17h-15l-20 10l-10 105v-109l-29 -6h-17l-6 6h-16l-23 -6
h-14l-20 19l-21 -13l-4 -6l-16 12l-15 -12h-14v15v14v12l20 207l-20 -178v12v14v15v55v12v15l16 -140l-16 166v15v14v12z" />
    <glyph glyph-name="quotedblright" unicode="&#x201d;" horiz-adv-x="653" 
d="M238 1423l-9 -18l-8 -19l-8 -16l-8 -18l-2 73l-15 -110l-8 -19l-10 -2l-8 -18l-6 -33l-9 -18l-8 -19l-8 66l-8 -101l-8 -18l-9 -18l-6 6l-6 6l-6 6l-6 6l-6 6l-4 4l-6 7l-7 6l-6 6l-6 6l-6 6l-6 6l-6 6l-6 5l-7 6l-6 6l6 10l4 8l7 10l4 9l8 -21l2 39l6 8l6 11l4 8l6 10
l3 -70l8 88l4 9l6 10l4 8l6 10h-6h-6h-6l-10 47l-3 -47h-6h-6h-6h-6h-4h-6l-6 121l-7 -121h-6h-6h-6v17v16v16v17v16v19v16v16v58l8 -62v80v17l-8 32v17v16v16h14l21 -8l12 -106v108l29 6h14l8 -6h15l22 6h14l23 -18l18 12l5 6l16 -10l14 10h15v-14v-12v-15l-21 -206l21 180
v-14v-15v-12v-55v-15v-12l-17 139l17 -168v-14v-12v-15zM614 1423l-8 -18l-8 -19l-8 -16l-8 -18l-2 73l-15 -110l-8 -19l-10 -2l-8 -18l-7 -33l-8 -18l-8 -19l-8 66l-8 -101l-8 -18l-9 -18l-6 6l-6 6l-6 6l-6 6l-4 6l-6 4l-7 7l-6 6l-6 6l-6 6l-6 6l-6 6l-6 6l-7 5l-6 6
l-6 6l6 10l4 8l6 10l5 9l8 -21l2 39l6 8l6 11l4 8l6 10l2 -70l9 88l4 9l6 10l6 8l4 10h-6h-6h-6l-11 47l-2 -47h-6h-6h-4h-6h-6h-6l-7 121l-6 -121h-6h-6h-6v17v16v16v17v16v19v16v16v58l8 -62v80v17l-8 32v17v16v16h14l21 -8l12 -106v108l29 6h14l8 -6h14l23 6h14l23 -18
l18 12l4 6l17 -10l14 10h14v-14v-12v-15l-20 -206l20 180v-14v-15v-12v-55v-15v-12l-14 139l14 -168v-14v-12v-15z" />
    <glyph glyph-name="bullet" unicode="&#x2022;" horiz-adv-x="459" 
d="M12 1124h21h22l25 -22l18 -12l13 86h20l25 -7h20l19 7h20l35 -23l4 -131l25 154l30 -52h21l8 -10l12 -18v-29v-29l37 -225l8 121v-29v-28v-29v-29l-45 -8l-12 -6l12 -51v-29v-29v-28h-20l-25 39l-18 -19l-23 -61h-22l-23 53l-18 -53h-23h-20l-19 104l-14 119l-16 -178
l-35 -45l-19 41h-22l-13 55l-8 -39v41h-28v29l28 57l-37 29l62 223l-62 -166v29v26v29v29l37 -269v326v29v28z" />
    <glyph glyph-name="ellipsis" unicode="&#x2026;" horiz-adv-x="1214" 
d="M903 315h15h14l16 -16l15 -8l12 24h14l19 -6h14l12 6h15l22 -16l6 -92l15 108h14h16l4 -8l11 -12v-21v-18l-7 -143l7 104v-20v-21v-18v-21v-18v-21l-11 -4l11 -35v-20v-19v-20h-15l-18 27l-12 -13l-15 -14h-14l-19 8l-10 -8h-14h-14l-17 43l-10 82l-10 -123l-23 -2h-14
h-14l-9 37l-6 -27v29v20v19v20v21l17 153l-17 -114v18v21v20v19l19 -166l-19 204v21v20zM461 315h14h14l17 -16l14 -8l12 24h15l18 -6h15l12 6h14l25 -16l4 -92l14 108h15h16l4 -8l10 -12v-21v-18l-6 -143l6 104v-20v-21v-18v-21v-18v-21l-10 -4l10 -35v-20v-19v-20h-14
l-18 27l-13 -13l-14 -14h-14l-19 8l-10 -8h-14h-15l-16 43l-10 82l-11 -123l-22 -2h-15h-14l-8 37l-6 -27v29v20v19v20v21l16 153l-16 -114v18v21v20v19l18 -166l-18 204v21v20zM10 315h15h14l18 -16l13 -8l12 24h16l17 -6h14l12 6h15l24 -16l6 -92l15 108h14h14l7 -8l8 -12
v-21v-18l-6 -143l6 104v-20v-21v-18v-21v-18v-21l-8 -4l8 -35v-20v-19v-20h-15l-18 27l-12 -13l-15 -14h-14l-18 8l-11 -8h-14h-14l-17 43l-8 82l-12 -123l-23 -2h-14h-14l-9 37l-6 -27v29v20v19v20v21l17 153l-17 -114v18v21v20v19l19 -166l-19 204v21v20z" />
  </font>
</defs>
</svg>
